<?xml version="1.0" encoding="UTF-8" standalone="no"?>
<svg xmlns:svg="http://www.w3.org/2000/svg" xmlns="http://www.w3.org/2000/svg" version="1.1" width="40" height="47" viewBox="-2 -1 40 47">
  <path
     style="fill:#000000;stroke:#ffffff;stroke-width:0.5;stroke-linejoin:round;stroke-miterlimit:4;stroke-dasharray:none"
     d="m 33.352134,39.197818 1.894036,0 0.0507,-37.1369862 c 0.01353,-0.62555 -0.244002,-0.933069 -0.955385,-0.931407 0,0 -27.6592487,0.0055 -29.0210867,0.02793 -1.361838,0.02244 -3.977476,1.422442 -4.04061,4.074092 -0.06313,2.651651 0,35.5447432 0,36.7442992 0,1.199556 0.947018,1.262691 0.947018,1.262691 0,0 27.0847147,-0.06314 28.0948667,-0.06314 1.010153,0 0.820749,-0.947018 0.820749,-0.947018 0,0 0.189404,-35.1659352 0.126269,-36.1129532 -0.06313,-0.947018 -1.073287,-0.883884 -1.073287,-0.883884 -8.813043,0.11602 -17.624931,0.024458 -26.4375787,-0.015783 0,0 0.741831,-1.878252 2.509598,-1.941386 1.767767,-0.06313 26.8953107,-0.06313 26.8953107,-0.06313 z"
     />
  <text
     style="font-size:12px;font-style:normal;font-weight:normal;line-height:125%;letter-spacing:0px;word-spacing:0px;fill:#ffffff;fill-opacity:1;stroke:none;font-family:Sans"
     x="2.8138299"
     y="15.891724"
     >↻</text>
</svg>
