<?xml version="1.0" encoding="UTF-8" standalone="no"?>
<svg version="1.1" xmlns="http://www.w3.org/2000/svg" xmlns:xlink="http://www.w3.org/1999/xlink"  width="340" height="340" viewBox="-15 -15 400 400">
    <path
       style="fill:#000000;stroke:none;stroke-width:1px;stroke-linecap:butt;stroke-linejoin:miter;stroke-opacity:1"
       d="m 171.03125,3.8125 c 0,0 -51.50936,3.0339226 -47.46875,92.9375 l -14.15625,29.3125 -26.25,-25.25 L 82.125,59.875 c 0,0 -3.51412,-13.114848 -17.65625,-14.125 -14.14214,-1.010153 -18.6875,15.65625 -18.6875,15.65625 l 2,50.5 39.40625,41.40625 -14.15625,25.28125 -49.34375,-0.375 -14.375,10.3125 -6.46875,12.28125 -1.53125,54.53125 c 0,0 5.56138,16.67655 21.21875,14.65625 17.17259,-0.50508 18.1875,-17.6875 18.1875,-17.6875 l -2.03125,-37.375 25.28125,1.03125 6.0625,53.53125 -26.28125,33.34375 -5.0625,53.5 c 0,0 6.06646,16.17735 21.21875,17.1875 16.16245,-0.50508 19.1875,-17.1875 19.1875,-17.1875 l 1.53125,-41.90625 8.59375,-9.59375 c 0,0 30.30487,43.42735 80.8125,44.4375 l 0.5,-150.5 c 0,0 0.50427,-12.04017 15.5,-12.625 14.99573,0.58483 15.5,12.625 15.5,12.625 l 0.5,150.5 c 50.50763,-1.01015 80.8125,-44.4375 80.8125,-44.4375 l 8.59375,9.59375 1.5,41.90625 c 0,0 3.02505,16.68242 19.1875,17.1875 15.15229,-1.01015 21.21875,-17.1875 21.21875,-17.1875 l -5.03125,-53.5 -26.28125,-33.34375 6.0625,-53.53125 25.25,-1.03125 -2,37.375 c 0,0 0.98366,17.18242 18.15625,17.6875 15.65737,2.0203 21.21875,-14.65625 21.21875,-14.65625 l -1.5,-54.53125 -6.46875,-12.28125 -14.375,-10.3125 -49.375,0.375 -14.125,-25.28125 39.375,-41.40625 2.03125,-50.5 c 0,0 -4.54536,-16.666403 -18.6875,-15.65625 -14.14213,1.010152 -17.6875,14.125 -17.6875,14.125 l -1,40.9375 -26.28125,25.25 L 248.5,96.75 C 252.54061,6.8464232 201.03125,3.8125 201.03125,3.8125 l 0.5,38.90625 c -0.31096,19.480332 -31.16257,19.430987 -31,0 z"
       />
</svg>
