<?xml version="1.0" encoding="UTF-8" standalone="no"?>
<svg version="1.1" xmlns="http://www.w3.org/2000/svg" xmlns:xlink="http://www.w3.org/1999/xlink"  width="340" height="340" viewBox="60 0 400 350">
    <path
        style="fill:#d4c8a8;stroke:none;stroke-width:1px;stroke-linecap:butt;stroke-linejoin:miter;stroke-opacity:1;fill-opacity:1"
        d="M 209.375,-2.2424524e-7 C 224.375,24.375 221.25,36.875 203.75,53.75 c -17.5,16.875 15.625,-5.625 24.375,12.5 8.75,18.125 -16.25,23.75 -11.25,35 5,11.25 13.75,0.625 30,8.75 16.25,8.125 8.125,33.75 -9.375,23.75 -17.5,-10 -50.625,-19.375 -65,0 -14.375,19.375 18.125,21.25 18.75,41.25 0.625,20 -24.375,41.875 -36.875,11.25 -14.1258,-34.6082 -9.375,-7.5 -14.375,-7.5 -5,0 -26.66808,-12.74238 -32.5,18.75 -3.125,16.875 28.14499,28.1566 4.375,42.5 -26.413298,15.93844 5.66816,-62.94422 -30.625,-54.375 -45,10.625 -8.75,25 -15.625,39.375 C 58.75,239.375 31.25,212.5 20,217.5 8.75,222.5 13.125,255 0,263.75 -1.1372965,190.08593 0.02747767,84.250649 0.625,-2.2424524e-7 z"
    />
    <path
        style="fill:#d4c8a8;stroke:none;stroke-width:1px;stroke-linecap:butt;stroke-linejoin:miter;stroke-opacity:1;fill-opacity:0.47843137000000002"
        d="M 251.41257,42.294834 C 282.10913,33.11421 300.80369,23.62914 287.11499,12.83443 273.42629,2.039719 266.05135,23.333445 263.34108,30.099495 c -2.71026,6.766051 -11.92851,12.195339 -11.92851,12.195339 z"
    />
    <path
        style="fill:#d4c8a8;stroke:none;stroke-width:1px;stroke-linecap:butt;stroke-linejoin:miter;stroke-opacity:1;fill-opacity:0.47843137"
        d="m 34.53031,261.85511 c 3.686355,31.82724 2.353846,52.74799 -12.968854,44.43407 -15.322698,-8.31391 1.328592,-23.49768 6.474646,-28.65938 5.146055,-5.16169 6.494208,-15.77469 6.494208,-15.77469 z"
    />
</svg>
