<?xml version="1.0" encoding="UTF-8" standalone="no"?>
<svg version="1.1" xmlns="http://www.w3.org/2000/svg" xmlns:xlink="http://www.w3.org/1999/xlink"  width="340" height="340" viewBox="-20 -20 300 300">
    <path
       style="fill:#000000;stroke:none;stroke-width:1px;stroke-linecap:butt;stroke-linejoin:miter;stroke-opacity:1"
       d="M 188.71875 1.78125 L 188.71875 21.46875 C 150.06452 21.45492 106.89538 21.50185 71.71875 21.5 L 71.71875 1.8125 L 6.5625 1.8125 C 6.5625 1.8125 -9.5855292 101.81629 101.53125 176.0625 L 101.53125 184.15625 L 105.53125 184.15625 C 105.53125 184.15625 120.52232 198.0625 115.34375 215.5625 C 110.16518 233.0625 95.361607 240.58036 85.71875 242.1875 C 76.075893 243.79464 75.53125 251.125 75.53125 251.125 L 71.78125 251.125 L 71.78125 257.53125 L 188.65625 257.53125 L 188.65625 251.09375 L 184.90625 251.09375 C 184.90625 251.09375 184.39286 243.76339 174.75 242.15625 C 165.10715 240.54911 150.27232 233.0625 145.09375 215.5625 C 139.91518 198.0625 154.90625 184.125 154.90625 184.125 L 158.9375 184.125 L 158.9375 176.03125 C 270.05428 101.78504 253.875 1.78125 253.875 1.78125 L 188.71875 1.78125 z M 22.46875 13.40625 L 58.84375 13.40625 L 58.84375 21.75 L 55.8125 21.75 L 55.8125 33.875 L 59.59375 33.875 C 59.59375 33.875 53.548534 99.27965 79.8125 142.96875 C 20.718576 90.693358 22.46875 13.40625 22.46875 13.40625 z M 202.28125 13.8125 L 238.65625 13.8125 C 238.65625 13.8125 240.43768 91.068349 181.34375 143.34375 C 207.60772 99.654643 201.53125 34.25 201.53125 34.25 L 205.3125 34.25 L 205.3125 22.125 L 202.28125 22.125 L 202.28125 13.8125 z M 78.78125 34.625 L 99 34.875 C 99 34.875 98.561229 104.63561 123.5625 175.09375 L 112.25 175.3125 C 76.894663 117.98635 78.78125 34.625 78.78125 34.625 z "
       />
</svg>
