<?xml version="1.0" encoding="UTF-8" standalone="no"?>
<svg version="1.1" xmlns="http://www.w3.org/2000/svg" xmlns:xlink="http://www.w3.org/1999/xlink"  width="340" height="340" viewBox="78 0 350 350">
    <path
       style="fill:rgba(34,87,105,0.6);fill-opacity:1;stroke:none;stroke-width:1px;stroke-linecap:butt;stroke-linejoin:miter;stroke-opacity:1"
       d="m 0.15625,0.34375 0.0625,108.09375 c 0.00326,-0.0324 0.0625,-0.5625 0.0625,-0.5625 C 3.5642458,104.08692 11.625,99.0625 11.625,99.0625 l 11.625,29.53125 c 0,0 -16.2343796,14.3072 -23,21.59375 l 0.1875,286 C 28.721771,214.96409 162.65625,123.03125 162.65625,123.03125 L 151.53125,92.75 c 9.17175,-7.811742 17.51162,-11.406843 29.3125,-16.1875 l 9.09375,22.25 40.6875,-27.59375 -5.15625,-13.0625 17.46875,-6.3125 4.28125,10.1875 c 17.11446,-10.197931 35.00008,-18.590792 53.28125,-26.5 l -2.0625,-5.4375 13.3125,-4.5 1.53125,4.5625 c 0,0 53.23366,-22.4297954 121.65625,-29.8125 l -92.84375,0 4.09375,10.78125 c 0,0 -5.48127,1.808217 -13.5625,5.34375 l -6.03125,-16.125 -103.1875,0 7.4375,19.53125 c 0,0 -8.09613,1.785374 -17.1875,7.59375 l -10.09375,-27.125 -15.375,0 c -7.89295,2.8774108 -23.5553,8.902976 -30.59375,13.71875 l -5.125,-13.71875 -37.28125,0 11.09375,29.90625 c 0,0 -17.42465,9.59359 -28.03125,18.9375 L 86.125,18.125 C 94.484844,9.765152 110.21857,1.9696756 113.59375,0.34375 l -65.90625,0 11.4375,28.625 c 0,0 -22.486357,6.56234 -30.0625,15.90625 L 15.9375,14.0625 C 21.865399,8.775454 32.525948,3.4995496 39.5625,0.34375 l -39.40625,0 z M 266.9375,7 l 11.375,29.03125 c 0,0 -9.60627,3.808217 -17.6875,7.34375 L 249.53125,13.5625 C 257.61248,8.511735 266.9375,7 266.9375,7 z m -109.84375,8.84375 11.625,29.53125 c 0,0 -19.71352,8.106281 -29.5625,16.1875 L 128.0625,31.75 c 7.82868,-9.84899 29.03125,-15.90625 29.03125,-15.90625 z m -88,11.9375 c 4.355647,0.03611 8.729127,1.020317 10.71875,2.0625 5.303301,2.777919 9.620717,25.028712 13.15625,25.28125 C 94.253175,55.21675 98.5,50.8125 98.5,50.8125 l 11.375,30.3125 c -0.75761,2.020305 -6.5625,4.03125 -6.5625,4.03125 0,0 -4.81154,-17.43147 -11.125,-24.25 C 85.874047,54.087721 72.25,61.6875 72.25,61.6875 L 60.125,29.84375 c 2.209709,-1.546796 5.581025,-2.090588 8.96875,-2.0625 z m 132.71875,5.75 11.34375,29.28125 c 0,0 -21.46351,6.311548 -31.3125,12.625 L 170.75,46.90625 c 9.09137,-7.071071 31.0625,-13.375 31.0625,-13.375 z m -173.75,12.5 11.59375,30.53125 c 0,0 -20.205106,10.874839 -27.78125,20.21875 L 0.78125,66.96875 C 8.609932,57.119762 28.0625,46.03125 28.0625,46.03125 z M 72,62.5625 82.84375,92.09375 c 0,0 -21.723666,7.32249 -30.5625,15.65625 L 41.1875,77.96875 C 49.016183,68.11976 72,62.5625 72,62.5625 z m 67.15625,0.25 10.625,29.53125 c 0,0 -19.45511,9.34359 -27.03125,18.6875 L 110.875,81.5 c 7.82868,-9.84899 28.28125,-18.6875 28.28125,-18.6875 z m -45.6875,27 c 4.355647,0.03611 8.72913,1.020317 10.71875,2.0625 5.3033,2.777919 8.08946,23.49746 11.625,23.75 1.28442,0.0918 6.0625,-2.28125 6.0625,-2.28125 l 10.59375,27.78125 c -1.01015,3.53553 -24.08318,23.36119 -30.28125,17.9375 -6.198076,-5.42369 24.47822,-21.94762 15.375,-32.84375 C 110.00988,117.1786 96.625,123.6875 96.625,123.6875 L 84.5,91.875 c 2.209709,-1.546796 5.581025,-2.090588 8.96875,-2.0625 z m -41.4375,18.46875 11.625,30.53125 c 0,0 -20.205107,10.87484 -27.78125,20.21875 l -11.09375,-29.8125 c 7.828683,-9.84899 27.25,-20.9375 27.25,-20.9375 z"
       />
</svg>
