<?xml version="1.0" encoding="UTF-8" standalone="no"?>
<!-- Created with Inkscape (http://www.inkscape.org/) -->

<svg
   xmlns:dc="http://purl.org/dc/elements/1.1/"
   xmlns:cc="http://creativecommons.org/ns#"
   xmlns:rdf="http://www.w3.org/1999/02/22-rdf-syntax-ns#"
   xmlns:svg="http://www.w3.org/2000/svg"
   xmlns="http://www.w3.org/2000/svg"
   xmlns:sodipodi="http://sodipodi.sourceforge.net/DTD/sodipodi-0.dtd"
   xmlns:inkscape="http://www.inkscape.org/namespaces/inkscape"
   width="340"
   height="340"
   viewBox="0 0 450 450"
   id="svg4021"
   version="1.1"
   inkscape:version="0.48.5 r10040"
   sodipodi:docname="drawing_type.svg">
  <defs
     id="defs4023" />
  <sodipodi:namedview
     pagecolor="#ffffff"
     bordercolor="#666666"
     borderopacity="1.0"
     inkscape:pageopacity="0.0"
     inkscape:pageshadow="2"
     inkscape:zoom="0.70710678"
     inkscape:cx="180.79881"
     inkscape:cy="168.2702"
     inkscape:document-units="pt"
     inkscape:current-layer="layer1"
     id="namedview4025"
     showgrid="false"
     inkscape:window-width="1600"
     inkscape:window-height="845"
     inkscape:window-x="-7"
     inkscape:window-y="-10"
     inkscape:window-maximized="1" />
  <metadata
     id="metadata4027">
    <rdf:RDF>
      <cc:Work
         rdf:about="">
        <dc:format>image/svg+xml</dc:format>
        <dc:type
           rdf:resource="http://purl.org/dc/dcmitype/StillImage" />
        <dc:title></dc:title>
      </cc:Work>
    </rdf:RDF>
  </metadata>
  <g
     inkscape:label="Layer 1"
     inkscape:groupmode="layer"
     id="layer1">
    <path
       style="fill:#808080;stroke:none;stroke-width:1px;stroke-linecap:butt;stroke-linejoin:miter;stroke-opacity:1"
       d="M 18,353.5 C 0.09612056,366.26656 50.133568,323.68174 78.309919,295.42106 154.127,219.37707 236.48062,123.9741 221.89949,163.34315 c -20,54 6.36397,62.32233 10.36397,48.32233 C 236.26346,197.66548 290,77 298,99 c 8,22 14.62742,46.62385 26.62742,22.62385 C 336.62742,97.623846 340,1 348,29 c 1.64142,5.744957 4.25495,29.639043 7.71338,30.177418 6.15408,0.958008 14.98347,-26.081261 25.7714,-33.498869 12.69735,-8.730494 28.1079,-20.276992 45.06295,-22.1343931 0,0 8.75434,189.1225841 -170.54773,239.4558441 C 76.697927,293.33326 35.903879,340.73344 18,353.5 z"
       id="path4648"
       inkscape:connector-curvature="0"
       sodipodi:nodetypes="zssssssssczz" />
    <path
       style="fill:#000000;stroke:#ffffff;stroke-width:2.78382015;stroke-linecap:butt;stroke-linejoin:miter;stroke-miterlimit:4;stroke-opacity:1;stroke-dasharray:none"
       d="M 37.485837,341.46784 C 87.174489,303.54967 113.97146,294.38637 188.2296,267.10578 269.27036,237.33343 279.11201,241.18234 334.01492,169.89246 373.37179,118.78867 417.75986,-12.505625 434.97378,1.8180516 438.57764,4.8168162 424.82819,78.625425 404.06923,149.60517 c -5.78878,19.79317 -37.94531,44.8998 -39.031,61.46288 -0.87922,13.41325 42.88349,-9.71907 43.56761,2.01324 5.27578,90.47662 -86.27047,29.1263 -109.09027,49.29434 -20.05258,17.72238 123.97341,57.36654 -4.39246,34.65965 -131.33679,-23.23242 -245.044851,49.00216 -256.512351,55.75265 -11.467499,6.75048 -20.729594,6.14109 -24.766073,7.59134 -17.4107861,6.25545 23.641151,-18.91143 23.641151,-18.91143 z"
       id="path4065"
       inkscape:connector-curvature="0"
       sodipodi:nodetypes="csssssssszsc" />
    <path
       style="fill:#000000;stroke:#ffffff;stroke-width:2.5;stroke-linecap:butt;stroke-linejoin:miter;stroke-miterlimit:4;stroke-opacity:1;stroke-dasharray:none"
       d="m 11.312751,359.87543 19.9453,-19.30794 21.404526,-28.76918 6.054174,1.41657 L 245.04834,89.752784 c 0,0 -11.50221,-1.623463 -16.31335,-12.027389 -5.09229,-11.011907 3.74352,-23.685058 3.74352,-23.685058 L 209.8051,70.44994 42.199259,304.41985 l 1.241298,2.44054 -20.771212,29.64125 z"
       id="path4041"
       inkscape:connector-curvature="0"
       sodipodi:nodetypes="cccccscccccc" />
    <path
       style="fill:#000000;stroke:#ffffff;stroke-width:6.25;stroke-linecap:butt;stroke-linejoin:miter;stroke-miterlimit:4;stroke-opacity:1;stroke-dasharray:none"
       d="m 257.30026,431.59809 -3.49851,-26.13519 1.51599,-34.56109 -5.82726,-2.04351 -4.4705,-279.027143 c 0,0 10.37186,4.74667 21.07827,-1.138273 11.33205,-6.228835 12.47988,-21.14087 12.47988,-21.14087 l 7.60428,25.227016 -17.56508,277.66452 -2.60271,1.3211 -2.59959,34.93315 z"
       id="path4041-3"
       inkscape:connector-curvature="0"
       sodipodi:nodetypes="cccccscccccc" />
    <path
       sodipodi:type="arc"
       style="fill:#000000;fill-opacity:1;stroke:#ffffff;stroke-width:2.5;stroke-miterlimit:4;stroke-opacity:1;stroke-dasharray:none"
       id="path4061"
       sodipodi:cx="188.90625"
       sodipodi:cy="83.671875"
       sodipodi:rx="19.21875"
       sodipodi:ry="19.765625"
       d="m 208.125,83.671875 a 19.21875,19.765625 0 1 1 -38.4375,0 19.21875,19.765625 0 1 1 38.4375,0 z"
       transform="matrix(1.2911809,0.37601551,-0.39610482,1.0944529,41.417301,-93.644476)" />
    <rect
       style="fill:#000000;fill-opacity:1;stroke:#ffffff;stroke-width:2.78666258;stroke-miterlimit:4;stroke-opacity:1;stroke-dasharray:none"
       id="rect4063"
       width="21.104048"
       height="46.673687"
       x="251.15698"
       y="-74.284637"
       transform="matrix(0.96011563,0.27960324,-0.34031756,0.94031057,0,0)" />
  </g>
</svg>
