<?xml version="1.0" encoding="UTF-8" standalone="no"?>
<!-- Created with Inkscape (http://www.inkscape.org/) -->

<svg
   xmlns:dc="http://purl.org/dc/elements/1.1/"
   xmlns:cc="http://creativecommons.org/ns#"
   xmlns:rdf="http://www.w3.org/1999/02/22-rdf-syntax-ns#"
   xmlns:svg="http://www.w3.org/2000/svg"
   xmlns="http://www.w3.org/2000/svg"
   xmlns:xlink="http://www.w3.org/1999/xlink"
   xmlns:sodipodi="http://sodipodi.sourceforge.net/DTD/sodipodi-0.dtd"
   xmlns:inkscape="http://www.inkscape.org/namespaces/inkscape"
   width="343pt"
   height="340pt"
   id="svg2985"
   version="1.1"
   inkscape:version="0.48.5 r10040"
   sodipodi:docname="drawing.svg">
  <defs
     id="defs2987">
    <linearGradient
       inkscape:collect="always"
       id="linearGradient4011">
      <stop
         style="stop-color:#d4c8a8;stop-opacity:1;"
         offset="0"
         id="stop4013" />
      <stop
         style="stop-color:#d4c8a8;stop-opacity:0;"
         offset="1"
         id="stop4015" />
    </linearGradient>
    <linearGradient
       inkscape:collect="always"
       xlink:href="#linearGradient3854-8"
       id="linearGradient3860-4"
       x1="113.75"
       y1="60"
       x2="208.75"
       y2="231.25"
       gradientUnits="userSpaceOnUse" />
    <linearGradient
       inkscape:collect="always"
       id="linearGradient3854-8">
      <stop
         style="stop-color:#d4c8a8;stop-opacity:1;"
         offset="0"
         id="stop3856-2" />
      <stop
         style="stop-color:#d4c8a8;stop-opacity:0;"
         offset="1"
         id="stop3858-0" />
    </linearGradient>
    <linearGradient
       inkscape:collect="always"
       xlink:href="#linearGradient4011"
       id="linearGradient4019"
       x1="132.97609"
       y1="139.22868"
       x2="66.92543"
       y2="89.731201"
       gradientUnits="userSpaceOnUse" />
  </defs>
  <sodipodi:namedview
     pagecolor="#ffffff"
     bordercolor="#666666"
     borderopacity="1.0"
     inkscape:pageopacity="0.0"
     inkscape:pageshadow="2"
     inkscape:zoom="1.1313708"
     inkscape:cx="-106.34349"
     inkscape:cy="244.61874"
     inkscape:document-units="pt"
     inkscape:current-layer="layer1"
     id="namedview2989"
     showgrid="false"
     inkscape:window-width="1600"
     inkscape:window-height="845"
     inkscape:window-x="-7"
     inkscape:window-y="-10"
     inkscape:window-maximized="1" />
  <metadata
     id="metadata2991">
    <rdf:RDF>
      <cc:Work
         rdf:about="">
        <dc:format>image/svg+xml</dc:format>
        <dc:type
           rdf:resource="http://purl.org/dc/dcmitype/StillImage" />
      </cc:Work>
    </rdf:RDF>
  </metadata>
  <g
     inkscape:label="Layer 1"
     inkscape:groupmode="layer"
     id="layer1">
    <path
       style="fill:#235869;fill-opacity:1;stroke:#ffffff;stroke-width:3.69179678;stroke-miterlimit:4;stroke-opacity:1;stroke-dasharray:none"
       d="M 19.407844,382.81341 C 1.0927805,348.20888 8.419298,294.03249 29.671225,256.94638 61.732406,200.99736 127.48463,152.38108 157.96996,113.58403 212.69926,43.932977 181.48773,-7.5559745 181.48773,-7.5559745 242.8376,66.944218 190.71555,168.14061 140.18109,203.5701 89.646631,238.9996 56.131321,269.61874 35.61783,311.09917 10.302421,362.28959 26.600671,392.85945 19.407844,382.81341 z"
       id="path3814-1-8-3-7-7"
       inkscape:connector-curvature="0"
       sodipodi:nodetypes="cssczsc" />
    <path
       style="fill:#235869;fill-opacity:1;stroke:#ffffff;stroke-width:2.5;stroke-miterlimit:4;stroke-opacity:1;stroke-dasharray:none"
       d="M 291.88311,130.57205 C 272.67045,256.04995 151.53341,277.74209 87.371492,305.61902 28.664338,331.12597 25.682903,356.69529 25.682903,356.69529 33.864539,287.91434 90.994612,255.44216 151.1257,230.66977 208.31687,207.10856 279.57465,178.33388 291.88311,130.57205 z"
       id="path3814-1-8-3"
       inkscape:connector-curvature="0"
       sodipodi:nodetypes="cscsc" />
    <path
       style="fill:#235869;fill-opacity:1;stroke:#ffffff;stroke-width:1.65337455;stroke-miterlimit:4;stroke-opacity:1;stroke-dasharray:none"
       d="m 214.98344,259.72382 c -28.39366,82.00273 -108.13058,84.56285 -152.478903,96.87579 -40.578014,11.26614 -45.770959,28.06834 -45.770959,28.06834 14.07159,-45.18165 54.546723,-61.26039 95.934342,-71.89499 39.3641,-10.11465 88.33505,-22.3282 102.31552,-53.04914 z"
       id="path3814-1-8-3-7"
       inkscape:connector-curvature="0"
       sodipodi:nodetypes="cscsc" />
    <path
       style="fill:url(#linearGradient4019);fill-opacity:1;stroke:#ffffff;stroke-width:3.69179677999999978;stroke-miterlimit:4;stroke-opacity:1;stroke-dasharray:none"
       d="M 16.230239,257.13545 C 48.29142,201.18643 114.04364,152.57015 144.52897,113.7731 199.25827,44.122041 172.61781,-1.028076 172.61781,-1.028076 L -3.06383,-0.52699 -1.9476,304.23417 c 0,0 7.4816442,-27.62766 18.177839,-47.09872 z"
       id="path3814-1-8-3-7-7-6"
       inkscape:connector-curvature="0"
       sodipodi:nodetypes="cscccc" />
    <path
       style="fill:#235869;fill-opacity:1;stroke:#ffffff;stroke-width:1.65337455;stroke-miterlimit:4;stroke-opacity:1;stroke-dasharray:none"
       d="M 414.85322,2.9839317 C 393.93199,87.203588 314.74642,96.907984 271.6818,113.15053 c -39.40345,14.86166 -43.06784,32.06204 -43.06784,32.06204 9.96079,-46.262016 48.82995,-65.907639 89.09641,-80.212954 38.29776,-13.605897 85.97528,-30.164228 97.14285,-62.0156843 z"
       id="path3814-1-8-3-7-8"
       inkscape:connector-curvature="0"
       sodipodi:nodetypes="cscsc" />
  </g>
</svg>
