<?xml version="1.0" encoding="UTF-8" standalone="no"?>
<svg version="1.1" xmlns="http://www.w3.org/2000/svg" xmlns:xlink="http://www.w3.org/1999/xlink"  width="340" height="340" viewBox="40 -5 340 430">
    <path
        style="fill:#000000;stroke:none;stroke-width:1px;stroke-linecap:butt;stroke-linejoin:miter;stroke-opacity:1"
        d="m 181.63806,411.2998 c 19.88737,10e-6 41.47847,-37.31195 9.72271,-49.05552 -35.08641,-12.97528 -44.06856,53.48534 -7.07107,56.56854 41.54172,3.4619 54.80078,-24.3068 56.56855,-43.31029 1.78709,-19.21125 -41.26645,-257.98028 -40.2167,-281.074952 1.51007,-33.221707 18.9569,-62.856771 32.26174,-74.688153 12.61862,-11.2211559 25.41387,14.525666 14.7968,46.181508 -6.83779,20.387534 -24.42115,36.501617 -54.57155,69.165287 -67.03645,72.62447 -67.0489,89.81115 -58.77825,128.60504 10.50537,49.2759 63.19767,65.84932 99.43689,57.45243 36.23922,-8.39689 59.66213,-49.49747 50.38136,-81.75922 -9.28078,-32.26175 -38.77577,-49.71456 -68.50097,-44.19417 -30.93593,5.74524 -70.3126,62.69926 -22.09709,91.03999 10.2058,5.9989 15.3037,4.88902 11.94071,2.39695 -9.45278,-7.00476 -27.88805,-28.84168 -14.15042,-48.35889 14.45365,-20.53447 60.54602,-40.65864 73.80427,16.35185 13.25826,57.01048 -34.91339,57.45242 -47.7297,60.10407 -12.81632,2.65165 -97.66912,-19.00349 -55.24272,-106.06601 26.75194,-54.89722 62.68531,-68.88655 90.53142,-109.17906 C 280.01484,61.990205 259.26902,-4.688418 243.5099,2.0617561 166.7772,34.929011 204.17708,136.41204 217.43534,240.26835 c 11.05001,86.55836 28.28427,133.90835 8.39689,159.09903 -19.88738,25.19068 -44.19417,11.93242 -44.19417,11.93242 z"
    />
</svg>
