<?xml version="1.0" encoding="UTF-8" standalone="no"?>
<svg version="1.1" xmlns="http://www.w3.org/2000/svg" xmlns:xlink="http://www.w3.org/1999/xlink"  width="340" height="340" viewBox="2 -15 400 400">
    <path
       id="path3307"
       d="m 38.040191,17.657946 c -8.796615,0 -19.421635,8.22624 -19.421635,22.06607 l -0.34085,279.008934 c 0,9.07648 10.83658,21.3663 21.037485,21.0375 95.294899,-0.47811 199.386329,1.40669 285.444389,-0.54913 4.03249,-0.0916 34.02539,-0.19172 37.97594,-0.30087 9.65869,0 25.15648,-4.98558 24.6112,-16.72745 L 386.2978,62.089457 c -0.065,-16.105371 -22.17419,-19.453322 -30.85946,-18.594845 -4.55895,0.450619 3.72841,20.589423 0.15438,19.370043 -1.55146,-0.529323 11.7832,-4.245643 14.33496,1.03685 0,0 0.10343,247.787555 -0.074,250.639875 0,0 -1.56589,4.42815 -5.31049,4.41844 -3.74461,-0.01 -4.79102,-2.33355 -4.79102,-2.33355 L 359.49958,37.420446 c -0.006,-7.187367 -9.23701,-19.7625 -19.31094,-19.7625 z m 3.42657,22.76406 294.418759,0 0.10625,275.840634 c -98.63178,0.38587 -195.66218,-0.10625 -293.675009,-0.10625 z"
       style="fill:#000000;fill-opacity:1;fill-rule:nonzero;stroke:none"
       />
    <rect
       style="fill:#000000;fill-opacity:1;fill-rule:nonzero;stroke:none"
       width="130"
       height="21.785715"
       x="192.78572"
       y="56.433609"
       ry="10" />
    <rect
       style="fill:#000000;fill-opacity:1;fill-rule:nonzero;stroke:none"
       width="130"
       height="21.785715"
       x="193.21429"
       y="103.3979"
       ry="10" />
    <rect
       style="fill:#000000;fill-opacity:1;fill-rule:nonzero;stroke:none"
       width="130"
       height="21.785715"
       x="193.21429"
       y="149.11218"
       ry="10" />
    <rect
       style="fill:#000000;fill-opacity:1;fill-rule:nonzero;stroke:none"
       width="130"
       height="21.785715"
       x="193.21429"
       y="236.61218"
       ry="10" />
    <rect
       style="fill:#000000;fill-opacity:1;fill-rule:nonzero;stroke:none"
       width="130"
       height="21.785715"
       x="193.21429"
       y="284.11218"
       ry="10" />
    <rect
       style="fill:#000000;fill-opacity:1;fill-rule:nonzero;stroke:none"
       width="130"
       height="21.785715"
       x="54.642857"
       y="283.39789"
       ry="10" />
    <rect
       style="fill:#000000;fill-opacity:1;fill-rule:nonzero;stroke:none"
       width="130"
       height="21.785715"
       x="54.642857"
       y="236.61218"
       ry="10" />
    <rect
       style="fill:#000000;fill-opacity:1;fill-rule:nonzero;stroke:none"
       width="269.28571"
       height="21.071436"
       x="54.642857"
       y="192.68362"
       ry="10" />
    <rect
       style="fill:#000000;fill-opacity:1;fill-rule:nonzero;stroke:none"
       width="114.28571"
       height="113.92857"
       x="54.642857"
       y="53.219322"
       ry="10.892858" />
</svg>
