<?xml version="1.0" encoding="UTF-8" standalone="no"?>
<svg version="1.1" xmlns="http://www.w3.org/2000/svg" xmlns:xlink="http://www.w3.org/1999/xlink"  width="340" height="340" viewBox="-50 -42 400 400">
    <path
       style="fill:#000000;fill-opacity:1;fill-rule:nonzero;stroke:none"
       d="m 109.10688,93.768029 88.40816,0 c 8.8086,0 15.9,6.082131 15.9,13.637061 0,7.55493 -7.0914,13.63706 -15.9,13.63706 l -88.40816,0 c -8.8086,0 -15.900002,-6.08213 -15.900002,-13.63706 0,-7.55493 7.091402,-13.637061 15.900002,-13.637061 z m 0.25254,-40.91118 119.2178,0 c 8.8086,0 15.9,6.082128 15.9,13.637059 0,7.554931 -7.0914,13.637061 -15.9,13.637061 l -119.2178,0 c -8.8086,0 -15.900002,-6.08213 -15.900002,-13.637061 0,-7.554931 7.091402,-13.637059 15.900002,-13.637059 z M 76.290758,-0.1811611 c -10.34897,0 -22.21875,9.4678501 -22.21875,25.7500001 l 0,28.3125 -29.8125,0 c -10.723394,0 -24.1707896,9.263474 -23.7187496,22.71875 l 0,125.250001 c 0,12.51845 8.8948266,23.67245 26.7499996,25.25 l 0,53.03125 70.718752,-52.53125 115.65625,0 c 0,0 7.58439,0.004 11.625,-3.53125 l -32.34375,-23.84375 -104.531252,0.625 -34.34375,25.75 0,-26.25 -26.78125,0 0,-120.718751 25.75,0 0,69.687501 c 0,10.67821 12.74892,25.13682 24.75,24.75 l 118.718752,0 71.1875,53.03125 0,-54.03125 c 12.76626,0 26.78125,-10.44867 26.78125,-20.71875 l 0,-129.281251 c 0,-8.455732 -10.86707,-23.2500001 -22.71875,-23.2500001 l -195.468752,0 z m 4.03125,26.7812501 186.375002,0 0.125,119.812501 -26.75,0 -0.125,26.65625 -34.875,-26.78125 -123.750002,0 -1,-119.687501 z"
       />

</svg>
