<?xml version="1.0" encoding="UTF-8" standalone="no"?>
<svg version="1.1" xmlns="http://www.w3.org/2000/svg" xmlns:xlink="http://www.w3.org/1999/xlink"  width="340" height="340" viewBox="20 0 370 400">
    <path
        style="fill:#000000;stroke:#000000;stroke-width:1px;stroke-linecap:butt;stroke-linejoin:miter;stroke-opacity:1"
        d="m 176.875,42.9375 70.625,0 c 0,0 5.34481,1.519902 5.3125,6.5625 -0.0323,5.042598 -5.3125,6.875 -5.3125,6.875 l -70.625,0 c 0,0 -5.0311,-1.270814 -5,-6.875 0.0311,-5.604186 5,-6.5625 5,-6.5625 z"
    />
    <path
        style="fill:#000000;stroke:#000000;stroke-width:1px;stroke-linecap:butt;stroke-linejoin:miter;stroke-opacity:1"
        d="M 121.19228,76.518083 C 102.17084,76.328861 96.052292,61.756724 95.07584,49.54731 94.430608,41.479429 81.31728,41.555007 81.31728,49.988738 c 0,22.016432 17.858568,39.875 39.875,39.875 22.01643,0 39.875,-17.858568 39.875,-39.875 0,-8.725052 -14.41327,-9.929636 -14.22847,1.629087 0.20955,13.107004 -8.03727,25.075432 -25.64653,24.900258 z"
    />
    <path
        style="fill:#000000;stroke:#000000;stroke-width:1px;stroke-linecap:butt;stroke-linejoin:miter;stroke-opacity:1"
        d="m 209.06097,149.49384 c -19.02144,-0.18922 -25.13999,-14.76136 -26.11644,-26.97077 -0.64523,-8.06789 -13.75856,-7.99231 -13.75856,0.44142 0,22.01644 17.85857,39.875 39.875,39.875 22.01643,0 39.875,-17.85856 39.875,-39.875 0,-8.72505 -14.41327,-9.92963 -14.22847,1.62909 0.20955,13.107 -8.03727,25.07543 -25.64653,24.90026 z"
    />
    <path
        style="fill:#000000;stroke:#000000;stroke-width:1px;stroke-linecap:butt;stroke-linejoin:miter;stroke-opacity:1"
        d="m 86.31728,117.2964 70.625,0 c 0,0 5.34481,1.5199 5.3125,6.5625 -0.0323,5.0426 -5.3125,6.875 -5.3125,6.875 l -70.625,0 c 0,0 -5.0311,-1.27081 -5,-6.875 0.0311,-5.60418 5,-6.5625 5,-6.5625 z"
    />
    <path
        style="fill:#000000;stroke:#000000;stroke-width:1px;stroke-linecap:butt;stroke-linejoin:miter;stroke-opacity:1"
        d="m 293.91378,215.27558 c -19.02144,-0.18922 -25.13999,-14.76136 -26.11644,-26.97077 -0.64523,-8.06789 -13.75856,-7.99231 -13.75856,0.44142 0,22.01644 17.85857,39.875 39.875,39.875 22.01643,0 39.875,-17.85856 39.875,-39.875 0,-8.72505 -14.41327,-9.92963 -14.22847,1.62909 0.20955,13.107 -8.03727,25.07543 -25.64653,24.90026 z"
    />
    <path
        style="fill:#000000;stroke:#000000;stroke-width:1px;stroke-linecap:butt;stroke-linejoin:miter;stroke-opacity:1"
        d="m 207.55277,216.40568 c -19.02144,-0.18922 -25.13999,-14.76136 -26.11644,-26.97077 -0.64523,-8.06789 -13.75856,-7.99231 -13.75856,0.44142 0,22.01644 17.85857,39.875 39.875,39.875 22.01643,0 39.875,-17.85856 39.875,-39.875 0,-8.72505 -14.41327,-9.92963 -14.22847,1.62909 0.20955,13.107 -8.03727,25.07543 -25.64653,24.90026 z"
    />
    <path
        style="fill:#000000;stroke:#000000;stroke-width:1px;stroke-linecap:butt;stroke-linejoin:miter;stroke-opacity:1"
        d="m 86.31728,185.09213 70.62501,0 c 0,0 5.34481,1.5199 5.3125,6.5625 -0.0323,5.0426 -5.3125,6.875 -5.3125,6.875 l -70.62501,0 c 0,0 -5.0311,-1.27081 -5,-6.875 0.0311,-5.60418 5,-6.5625 5,-6.5625 z"
    />
    <path
        style="fill:#000000;stroke:#000000;stroke-width:1px;stroke-linecap:butt;stroke-linejoin:miter;stroke-opacity:1"
        d="m 301.02927,293.61888 c -19.02144,-0.18922 -25.13999,-14.76136 -26.11644,-26.97077 -0.64523,-8.06789 -13.75855,-7.99231 -13.75855,0.44142 0,22.01644 17.85856,39.875 39.87499,39.875 22.01643,0 39.875,-17.85856 39.875,-39.875 0,-8.72505 -14.41327,-9.92963 -14.22847,1.62909 0.20955,13.107 -8.03727,25.07543 -25.64653,24.90026 z"
    />
    <path
        style="fill:#000000;stroke:#000000;stroke-width:1px;stroke-linecap:butt;stroke-linejoin:miter;stroke-opacity:1"
        d="m 174.93994,261.42144 70.62501,0 c 0,0 5.34481,1.5199 5.3125,6.5625 -0.0323,5.0426 -5.3125,6.875 -5.3125,6.875 l -70.62501,0 c 0,0 -5.0311,-1.27081 -5,-6.875 0.0311,-5.60418 5,-6.5625 5,-6.5625 z"
    />
    <path
        style="fill:#000000;stroke:#000000;stroke-width:1px;stroke-linecap:butt;stroke-linejoin:miter;stroke-opacity:1"
        d="m 121.19228,294.87714 c -19.02144,-0.18922 -25.13999,-14.76136 -26.11644,-26.97077 -0.64523,-8.06789 -13.75856,-7.99231 -13.75856,0.44142 0,22.01644 17.85857,39.875 39.875,39.875 22.01643,0 39.875,-17.85856 39.875,-39.875 0,-8.72505 -14.41327,-9.92963 -14.22847,1.62909 0.20955,13.107 -8.03727,25.07543 -25.64653,24.90026 z"
    />
    <path
        style="fill:#000000;stroke:#000000;stroke-width:1px;stroke-linecap:butt;stroke-linejoin:miter;stroke-opacity:1"
        d="m 205.74594,367.98975 c -19.02144,-0.18922 -25.13999,-14.76136 -26.11644,-26.97076 -0.64523,-8.06789 -13.75856,-7.99231 -13.75856,0.44142 0,22.01643 17.85857,39.87499 39.875,39.87499 22.01643,0 39.875,-17.85856 39.875,-39.87499 0,-8.72505 -14.41327,-9.92963 -14.22847,1.62909 0.20955,13.10699 -8.03727,25.07542 -25.64653,24.90025 z"
    />
    <path
        style="fill:#000000;stroke:#000000;stroke-width:1px;stroke-linecap:butt;stroke-linejoin:miter;stroke-opacity:1"
        d="m 121.19228,369.34082 c -19.02144,-0.18922 -25.13999,-14.76136 -26.11644,-26.97076 -0.64523,-8.06789 -13.75856,-7.99231 -13.75856,0.44142 0,22.01643 17.85857,39.87499 39.875,39.87499 22.01643,0 39.875,-17.85856 39.875,-39.87499 0,-8.72505 -14.41327,-9.92963 -14.22847,1.62909 0.20955,13.10699 -8.03727,25.07542 -25.64653,24.90025 z"
    />
    <path
        style="fill:#000000;stroke:#000000;stroke-width:1px;stroke-linecap:butt;stroke-linejoin:miter;stroke-opacity:1"
        d="m 266.98063,336.69209 70.62501,0 c 0,0 5.34481,1.5199 5.3125,6.5625 -0.0323,5.0426 -5.3125,6.875 -5.3125,6.875 l -70.62501,0 c 0,0 -5.0311,-1.27081 -5,-6.875 0.0311,-5.60418 5,-6.5625 5,-6.5625 z"
    />
</svg>
