<?xml version="1.0" encoding="UTF-8" standalone="no"?>
<svg version="1.1" xmlns="http://www.w3.org/2000/svg" xmlns:xlink="http://www.w3.org/1999/xlink"  width="340" height="340" viewBox="-35 -10 200 200">
    <path
       style="fill:#000000;stroke:none"
       d="m 62.280536,5.190955 c 0,0 57.618764,-1.589513 57.618764,46.492344 0,48.081813 -40.134464,46.4923 -40.134464,46.4923 l 0,12.715881 -36.55806,0 0,-34.17389 c 0,0 14.44573,-2.669839 27.59127,-9.545047 11.99209,-6.271935 9.80905,-19.587531 3.00626,-23.834067 -17.20556,-10.740153 -25.82907,10.331637 -25.82907,10.331637 l -38.9422999,0 c 0,0 -3.17899,-48.876547 53.2475999,-48.479158 z"
       />
    <path
       style="fill:#000000;fill-opacity:1;fill-rule:nonzero;stroke:none"
       d="m 225.98214,137.67468 a 5.3571429,4.8660712 0 1 1 -10.71428,0 5.3571429,4.8660712 0 1 1 10.71428,0 z"
       transform="matrix(4.4505486,0,0,4.4505486,-919.62172,-470.24543)" />
</svg>
