<?xml version="1.0" encoding="UTF-8" standalone="no"?>
<svg version="1.1" xmlns="http://www.w3.org/2000/svg" xmlns:xlink="http://www.w3.org/1999/xlink" width="60" height="60" viewBox="0 0 400 400">
    <path
       style="fill:rgb(106,99,81);fill-opacity:1;stroke:#ffffff;stroke-width:4.49871635;stroke-linecap:butt;stroke-linejoin:miter;stroke-miterlimit:4;stroke-opacity:1;stroke-dasharray:none"
       d="M 145.8125,3.6875 C 101.72861,3.7236 42.922101,10.838754 39.875,159.40625 c -0.111312,5.42688 -35.4811736,11.9652 -35.59375,17.75 -3.5386043,181.83947 74.321038,199.55751 140.375,198.625 69.59256,1.86502 150.96078,-19.59304 149.78125,-200.5 -0.0269,-4.1297 -37.48041,-8.15865 -37.46875,-12.09375 C 257.42119,10.647714 194.23578,3.64784 145.8125,3.6875 z m 3.125,39.84375 c 31.01399,-0.02915 65.72728,5.105024 65.4375,117.25 0,0 -127.428357,-2.91747 -127.5625,-2.78125 C 88.764094,48.775404 120.70279,43.55785 148.9375,43.53125 z M 147.90625,190.5 c 4.77282,0.004 9.40638,1.12216 12.65625,3.625 10.33717,8.52237 2.74583,19.56356 26.6875,20.40625 7.30875,5.68982 8.39664,16.21393 -1.03125,23.84375 -12.81304,9.40863 -18.87767,12.49757 -19.1875,16.875 l 0.125,40.78125 c -0.0315,11.09417 -16.34178,8.52854 -21.1875,18.90625 -3.9841,-10.55994 -19.74274,-6.43836 -20.3125,-18 L 124.8125,255.25 c -0.18073,-7.84517 1.16177,-6.36008 -17.53125,-18.5 -7.10529,-5.64298 -8.811004,-15.57465 -1.625,-21.40625 9.98048,-7.58192 24.27534,-2.45445 25.6875,-19.75 4.06177,-3.2249 10.42602,-5.09897 16.5625,-5.09375 z"
    />
</svg>
