<?xml version="1.0" encoding="UTF-8" standalone="no"?>
<svg xmlns:svg="http://www.w3.org/2000/svg" xmlns="http://www.w3.org/2000/svg"
   version="1.1"
   width="100"
   height="100"
   viewBox="25 5 115 115"
>


  <path
     d="m 33,94.893011 c 0,-2.3208 -0.371455,-2.964448 -1.467975,-2.543674 -0.807386,0.309823 -1.733944,0.132968 -2.059017,-0.393011 C 28.54365,90.452593 25.839734,90.836917 24.50485,92.66248 22.995811,94.726214 20.014994,93.77334 19.288429,90.994953 18.882588,89.443015 17.922528,89 14.965156,89 12.874286,89 10.451771,88.726855 9.5817875,88.393011 7.9232004,87.756552 7.3420501,84 8.9021749,84 c 0.4961961,0 1.3694421,-1.340404 1.9405471,-2.978675 0.860503,-2.468442 1.748416,-3.092217 5.183512,-3.641511 4.810635,-0.769251 5.80779,-2.452933 4.013822,-6.777278 C 17.501378,64.483074 13,50.707554 13,49.057926 13,48.132679 12.1,45.512873 11,43.236136 7.7289248,36.46579 8.2117925,34.996032 16.381679,26.855319 c 4.059924,-4.045425 8.897424,-8.223213 10.75,-9.283973 C 35.156313,12.976552 40.423168,11 44.642138,11 c 3.870862,0 5.0502,-0.566773 9.150703,-4.3976964 5.155931,-4.8169649 9.816271,-6.41114704 9.554264,-3.2682674 -0.122765,1.4726118 0.334583,1.711687 2.320796,1.2131792 1.78807,-0.4487769 3.142194,0.01297 4.885619,1.6659638 3.374989,3.1999291 3.062045,4.4321348 -1.748976,6.8865348 -4.195457,2.140363 -4.195457,2.140363 -1.379051,3.291567 1.549024,0.633163 4.681258,3.591902 6.960521,6.574975 3.424209,4.481565 8.886453,9.573064 18.363986,17.117549 3.019838,2.403908 1.469153,6.89333 -3.05014,8.830525 -4.300139,1.843255 -4.300139,1.843255 -5.656706,10.214462 -0.746111,4.604165 -1.899352,9.665663 -2.562757,11.247775 -0.663405,1.582112 -0.990801,4.787502 -0.727546,7.123088 0.478231,4.242857 0.474767,4.248001 -4.015018,5.962666 C 71.551207,85.443112 68.609536,88.920301 67.611557,94.25 66.594896,99.679467 33,100.30359 33,94.893011 z m 16.281468,-5.924678 c -0.644053,-2.462864 -3.561735,-4.181751 -5.703282,-3.359962 -2.084273,0.79981 -1.122671,2.142803 2.748363,3.838422 1.745398,0.764533 3.243822,1.426767 3.329831,1.471633 0.08601,0.04487 -0.0827,-0.832676 -0.374912,-1.950093 z M 61,87.386501 C 61,87.173925 59.65,87 58,87 c -1.65,0 -3,0.372063 -3,0.826807 0,0.454744 1.35,0.628669 3,0.386501 1.65,-0.242169 3,-0.614232 3,-0.826807 z m -1.129154,-8.171588 c 0.594751,0.156798 2.163907,-1.051675 3.487012,-2.685495 1.9965,-2.465354 2.66101,-2.758648 3.907111,-1.724477 1.208231,1.002743 1.604346,0.978003 2.028251,-0.126676 C 69.956424,72.949981 63.569213,70 59.16398,70 56.455735,70 56,69.639904 56,67.5 56,65.375969 56.461905,65 59.071429,65 62.077681,65 65,63.109671 65,61.165048 c 0,-0.537795 -0.886789,-0.745908 -1.970643,-0.462474 -1.512603,0.395555 -2.616652,-0.528338 -4.75,-3.974905 C 54.050232,49.895231 48.79198,48.395813 43.42265,52.4912 39.684591,55.342357 41.957285,62.973272 46.55,62.991751 c 5.145001,0.0207 5.743961,4.13857 0.858909,5.905027 -2.962858,1.071384 -3.490073,1.675089 -3.013655,3.450889 0.31759,1.183783 0.583581,3.164833 0.591091,4.402333 0.01231,2.027908 0.501368,2.25 4.954638,2.25 2.717541,0 5.232603,0.471851 5.589028,1.048558 0.449241,0.726889 1.048603,0.716125 1.953757,-0.03509 0.718141,-0.596005 1.792327,-0.955356 2.387078,-0.798559 z M 31,75.559017 C 31,74.216476 30.55,72.839919 30,72.5 29.45,72.160081 29,70.614774 29,69.065983 29,64.11019 27.793441,59.865286 26.523353,60.352665 23.711875,61.43153 20.514477,54.78266 21.656541,50.232313 c 0.443609,-1.76748 0.289602,-2.317062 -0.510698,-1.822449 -2.395127,1.48027 -0.694744,9.218885 3.328217,15.147048 1.174474,1.730686 2.745149,5.688388 3.490389,8.794894 C 29.356875,78.156092 31,79.892134 31,75.559017 z M 76.878325,61.75 C 78.879132,56.318425 79.070806,54 77.519052,54 76.454622,54 76,55.029817 76,57.440983 76,59.333524 75.55,61.160081 75,61.5 c -1.305746,0.806996 -1.288985,2.5 0.02475,2.5 0.563613,0 1.397721,-1.0125 1.853574,-2.25 z M 65.892649,46.707351 C 66.501692,46.098308 67.014312,44.2275 67.031803,42.55 67.07311,38.588626 69.206677,35.606677 70.834798,37.234798 71.524104,37.924104 72,37.985537 72,37.385212 c 0,-2.102669 -7.242919,-4.702523 -8.222796,-2.951582 -1.17122,2.092855 -2.929116,1.975264 -8.314547,-0.556187 -4.058776,-1.90785 -4.967022,-1.996152 -8.978765,-0.872933 -2.454771,0.687293 -5.757956,0.990677 -7.340412,0.674186 -2.062617,-0.412523 -3.481115,-0.0128 -5.010336,1.411888 -2.54886,2.374624 -2.742948,3.357397 -0.492506,2.493822 1.984914,-0.761683 7.675598,5.149113 6.900934,7.167856 -0.392815,1.023658 0.294981,1.181426 2.96598,0.680343 1.912564,-0.358799 4.268277,-0.305612 5.234918,0.118194 0.966642,0.423805 2.993578,0.870519 4.504304,0.992698 1.594834,0.128982 4.3208,1.751637 6.5,3.869181 3.753226,3.647038 3.753226,3.647038 4.395875,0.52453 0.353458,-1.717379 1.140958,-3.620815 1.75,-4.229857 z M 59.70176,22.88947 c -1.210968,-0.335791 -3.376936,-0.404506 -4.813262,-0.1527 -2.786288,0.488473 -7.694628,-1.593319 -9.833775,-4.170833 -1.422676,-1.714219 -4.608905,-2.096303 -5.497086,-0.659196 -0.308218,0.498708 0.342621,0.670597 1.446309,0.381976 2.967273,-0.775959 5.271094,1.586082 4.637394,4.754585 -0.75677,3.783849 11.686355,5.906069 14.56042,2.483332 1.622032,-1.931685 1.598606,-2.055238 -0.5,-2.637164 z"
     style="fill:#f3f3f4" />
  <path
     d="m 35.208262,97.255446 c -1.05565,-0.367704 -1.05565,-0.736037 0,-2.015313 C 36.232115,93.99939 36.240771,93.587509 35.25,93.254045 34.5625,93.022654 34,91.979442 34,90.935797 c 0,-2.085984 -8.03287,-1.816905 -10.794322,0.361581 -0.937584,0.739651 -1.684726,0.463697 -2.710796,-1.001222 -0.874171,-1.248054 -2.994522,-2.233962 -5.538266,-2.575149 -5.2499655,-0.704169 -5.2055003,-0.633845 -3.199344,-5.05992 1.129946,-2.492939 2.533479,-3.917782 4.218073,-4.282116 6.804541,-1.471644 7.052618,-2.492826 3.060054,-12.596399 -1.76682,-4.47111 -3.802108,-10.947797 -4.522862,-14.392637 -0.720755,-3.444841 -2.03093,-7.291957 -2.9115,-8.549147 C 7.9308757,37.600899 20.180842,19 27.30183,19 28.144157,19 28.983333,18.607378 29.166667,18.127506 29.958027,16.056134 40.114358,12 44.509597,12 c 4.015424,0 5.152805,-0.534224 9.283244,-4.3603087 6.208775,-5.7512775 9.214126,-7.38233857 8.488296,-4.6067597 -0.287403,1.0990298 -0.918232,2.2427809 -1.401844,2.5416692 -2.45123,1.514944 -0.413831,2.2577567 2.66463,0.9714936 3.111842,-1.3002105 3.612573,-1.3018467 4.106989,-0.01342 C 67.960598,7.3397035 68.840833,8 69.606989,8 c 2.4799,0 1.475843,2.905806 -1.543577,4.467208 -4.237029,2.191053 -4.605065,3.44801 -1.342579,4.585318 1.748136,0.609404 4.903792,3.717373 8.069227,7.947288 2.859109,3.820579 6.438482,7.732899 7.95416,8.694047 11.403572,7.23142 12.898384,11.062582 5.75578,14.751902 -3.530535,1.823603 -4.077992,2.593545 -4.664515,6.560165 C 82.349436,65.055981 81.689148,68.074083 80.865061,68.583397 80.389277,68.877447 80,71.81678 80,75.115247 c 0,5.997214 0,5.997214 -4.298673,7.898721 C 70.942811,85.118886 65,91.742574 65,94.941362 c 0,1.976608 -0.508044,2.054016 -12.75,1.942637 -7.0125,-0.0638 -11.9625,-0.321797 -11,-0.573325 C 44.595501,95.436404 42.364337,93 38.218213,93 36.959603,93 36.866667,93.266667 37.8,94.2 c 2.120402,2.120402 0.433449,4.10918 -2.591738,3.055446 z M 59,89.217904 C 68.038498,84.7514 73.032417,73.498709 67.071855,71.029763 63.387732,69.503749 62.53397,67.360197 64.447258,64.44015 65.562252,62.738455 65.789723,60.554032 65.346351,55.806072 64.865759,50.659527 65.061769,49.193626 66.376408,48.102573 67.293499,47.341454 68,45.271721 68,43.34617 c 0,-4.067906 1.966791,-5.183266 5.176125,-2.935361 3.300588,2.311822 4.060741,1.957433 2.489895,-1.160809 -0.761937,-1.5125 -1.699693,-4.057729 -2.083902,-5.656064 -0.62717,-2.609071 -0.854995,-2.74963 -2.22926,-1.375366 -1.163394,1.163395 -2.406569,1.333158 -5.180793,0.707469 -2.765632,-0.623752 -3.842735,-0.479003 -4.4451,0.597364 -0.672408,1.201526 -1.560059,1.119038 -5.756156,-0.534909 -4.28855,-1.690389 -5.625389,-1.802179 -9.860606,-0.824574 -5.787626,1.335944 -8.355396,0.687936 -7.434015,-1.876066 C 39.044581,29.262697 37.825561,29.993098 35.818659,32 c -4.383163,4.383163 -5.470915,7 -2.909719,7 2.431846,0 3.837076,1.817432 4.252575,5.5 0.287143,2.544951 0.717692,2.9535 2.838485,2.69344 8.329583,-1.021405 10.988346,0.08698 5.97384,2.490368 -6.135801,2.940813 -7.298321,5.524899 -4.76089,10.582663 1.907431,3.802012 2.660519,4.472215 4.53705,4.037702 3.238213,-0.749811 2.89211,1.844978 -0.589422,4.418985 -2.663871,1.969485 -3.53544,5.235313 -1.847616,6.923138 C 43.690833,76.024166 44,77.158333 44,78.166667 c 0,1.80032 0.796913,2.057627 6.982112,2.254377 1.505627,0.04789 2.613641,0.753366 2.816443,1.793228 0.432118,2.215665 -4.358482,3.541652 -6.949485,1.923543 -2.050068,-1.280288 -6.143452,0.464356 -5.523936,2.354361 1.596573,4.87078 10.542367,6.250355 17.674866,2.725728 z m -0.425794,-4.885121 c -0.85148,-2.218923 1.028866,-4.129711 2.558577,-2.6 C 62.35705,82.95705 61.647937,86 60.138374,86 59.629956,86 58.92608,85.249752 58.574206,84.332783 z M 63,80.581787 C 63,78.06854 64.176977,76 65.606989,76 67.314828,76 67.44182,79.15818 65.8,80.8 64.191625,82.408375 63,82.315508 63,80.581787 z M 57,67.5 C 57,66.566667 57.944444,66 59.5,66 61.055556,66 62,66.566667 62,67.5 62,68.433333 61.055556,69 59.5,69 57.944444,69 57,68.433333 57,67.5 z M 59.556704,56.777494 C 57.723899,54.160798 57.535319,52 59.139757,52 c 1.536795,0 3.789162,3.088706 3.82844,5.25 0.04383,2.411971 -1.545291,2.19187 -3.411493,-0.472506 z M 53,49 c 0,-0.55 0.423442,-1 0.940983,-1 0.517541,0 1.219098,0.45 1.559017,1 0.339919,0.55 -0.08352,1 -0.940983,1 C 53.701558,50 53,49.55 53,49 z M 31.656861,75.75 C 30.621332,69.76109 29.91657,65.524589 29.411074,62.25 29.003574,59.610225 28.452055,59 26.473739,59 23.209736,59 22.414544,55.564401 23.634911,46.734946 25.037851,36.584569 22.575764,36.580796 20.100926,46.72953 18.770228,52.186409 20.346316,60.194405 23.5,64 c 0.683675,0.825 2.010781,3.975 2.949124,7 0.938343,3.025 1.882035,6.0625 2.097092,6.75 0.949013,3.03382 3.677682,1.279413 3.110645,-2 z M 77.94353,60.471795 C 80.386852,52.24144 80.273493,51.24808 77.085646,52.954163 75.58199,53.758896 75,55.045967 75,57.566569 75,59.751812 74.437551,61.278602 73.5,61.638374 71.832586,62.27822 71.427755,65 73,65 c 0.55,0 1,0.926558 1,2.059017 0,3.845801 1.678793,1.041567 3.94353,-6.587222 z M 38,66.059017 C 38,65.541476 37.55,64.839919 37,64.5 36.45,64.160081 36,62.108524 36,59.940983 36,57.104554 35.57959,56 34.5,56 c -1.698169,0 -2.011355,1.565931 -0.5,2.5 0.55,0.339919 1,1.679672 1,2.97723 0,1.297557 0.273145,3.070999 0.606989,3.940983 C 36.263632,67.129396 38,67.594364 38,66.059017 z M 61,26.5 c 1.104766,-2.905755 3.523071,-3.19391 7.027494,-0.837367 2.234747,1.502753 2.194898,1.363549 -0.414401,-1.447618 -2.337524,-2.518367 -3.431285,-3.001377 -5.747519,-2.53813 -1.581625,0.316325 -3.49257,0.04764 -4.274065,-0.60094 -0.965955,-0.801671 -1.618624,-0.841089 -2.061498,-0.124503 -1.100321,1.780356 -3.654384,1.177239 -8.684951,-2.050867 -4.830034,-3.099424 -4.830034,-3.099424 -9.337547,-0.457846 -5.490114,3.217421 -5.69125,3.744037 -0.757513,1.983326 7.025359,-2.507153 9.739342,-0.990221 7.402898,4.137715 -1.104326,2.423731 -1.080631,2.436591 4.618541,2.506515 C 51.922147,27.108942 55.4,27.527314 56.5,28 c 3.074399,1.321115 3.478646,1.186366 4.5,-1.5 z"
     style="fill:#dde2e3" />
  <path
     d="M 48.322621,96.338174 C 47.125062,96.08614 45.607462,95.231947 44.950176,94.439966 44.29289,93.647984 42.973007,93 42.017102,93 41.061197,93 38.621314,91.875 36.595138,90.5 33.558138,88.439036 31.715885,88 26.104814,88 13.083026,88 7.8499799,82.393999 17.848352,79.155107 c 4.877106,-1.5799 5.599845,-5.321471 2.30734,-11.944945 C 19.141322,65.169573 17.291069,59.675 16.044018,55 14.796967,50.325 12.878495,44.423372 11.780747,41.885272 c -1.4994,-3.466759 -1.738186,-5.083712 -0.959896,-6.5 C 12.124087,33.013717 24.067815,21.205399 26.730183,19.65631 36.52902,13.954892 41.305729,12 45.438104,12 49.357526,12 50.591206,11.415633 55.070592,7.4373046 59.439656,3.5569567 63.688431,1.7115687 60.183333,5.2166667 57.954006,7.445994 58.754383,9.0438816 61.5651,7.9752492 65.592921,6.4438742 67.517446,6.6715898 66,8.5 64.953596,9.7608395 65.133374,10.005734 67.127555,10.035963 69.5,10.071926 69.5,10.071926 66.75,12.323527 c -3.497541,2.863662 -3.467522,4.136625 0.132719,5.627894 1.585495,0.656733 4.25929,3.073827 5.941767,5.37132 4.097695,5.595575 8.903634,10.37437 15.12633,15.040896 6.02237,4.516297 6.130826,6.185535 0.603349,9.286088 C 84.139208,50.126227 79.895333,63.125542 79.625145,75 79.500273,80.488021 79.490199,80.504775 75,82.692617 c -2.675931,1.303843 -6.324069,4.442541 -9,7.743209 -3.383231,4.173096 -5.151449,5.552277 -7.125,5.557383 -1.44375,0.0037 -3.91875,0.185985 -5.5,0.404999 -1.58125,0.219015 -3.854821,0.192 -5.052379,-0.06003 z M 59.791727,89.720475 C 68.14944,85.778882 72.55981,74.949734 67.681714,70.347529 64.671665,67.50772 64.181083,66.53016 64.999017,65.001836 65.549558,63.973142 66.010735,61.189399 66.023857,58.815741 66.036978,56.442084 66.535066,52.7 67.13072,50.5 c 0.595654,-2.2 1.051429,-5.257959 1.012833,-6.795464 -0.0855,-3.4062 2.254932,-4.558875 4.722433,-2.325817 C 73.851308,42.270423 75.162187,43 75.779051,43 c 0.616863,0 1.580245,0.7875 2.14085,1.75 C 80.022125,48.359299 78.901208,43.967633 76.5,39.186935 75.125,36.449371 74,33.562398 74,32.77144 c 0,-2.341593 -1.22518,-2.87763 -2.969378,-1.299153 -1.312309,1.187624 -2.38697,1.268106 -5.490476,0.411187 -3.215869,-0.887945 -4.005009,-0.804193 -4.736367,0.50267 -0.794349,1.419423 -1.268625,1.411667 -5.001128,-0.08178 -3.491114,-1.396867 -4.97032,-1.472309 -9.644515,-0.491886 -6.027696,1.264323 -7.131437,0.954081 -5.546256,-1.558953 2.010223,-3.186865 11.932979,-3.61039 18.596248,-0.793729 1.294121,0.547043 1.86574,0.09408 2.358408,-1.868871 0.75997,-3.027962 3.295002,-3.382976 6.968647,-0.975911 3.386024,2.218608 3.101161,0.368829 -0.470104,-3.052661 -2.136369,-2.04677 -3.567084,-2.65317 -5.258308,-2.2287 -3.494592,0.877087 -5.576563,-0.701181 -3.780216,-2.865646 1.217507,-1.467006 1.144668,-1.870922 -0.564302,-3.12925 -1.791031,-1.31875 -1.992428,-1.243864 -2.308071,0.858213 C 55.356711,21.507858 52.381955,22.291446 47.411113,18.5 43.249452,15.325747 40.935339,15.352645 35.97856,18.632886 30.485228,22.268201 30.502982,24.642379 36,21.5 39.650693,19.413075 44,19.563938 44,21.777494 44,24.226732 41.205943,28 39.392313,28 c -2.552741,0 -8.382253,7.198323 -8.387535,10.356989 -0.0035,2.064753 0.390894,2.705155 1.422109,2.309441 1.927443,-0.739629 3.801498,1.713377 3.399877,4.4502 -0.486171,3.312986 -2.621573,3.447131 -3.066808,0.192656 C 32.375626,42.5 32.375626,42.5 31.325176,44.994818 30.451212,47.070483 31.275534,53 32.438056,53 32.57138,53 35.114858,51.658152 38.090231,50.018115 43.60855,46.976398 47,46.208214 47,48 c 0,0.55 -0.434342,1 -0.965204,1 -0.530862,0 -2.561327,1.401415 -4.512145,3.114256 -2.61712,2.297862 -4.224156,2.984797 -6.130282,2.620418 -2.798852,-0.535034 -2.874449,4.918408 -0.151039,10.895643 1.968507,4.320403 3.792803,2.915028 3.089853,-2.380317 -0.630556,-4.75 -0.630556,-4.75 1.525957,-2.838834 1.186082,1.051141 2.040941,2.596238 1.899687,3.433549 -0.153091,0.907473 0.752957,1.77249 2.243173,2.14159 2.5,0.619206 2.5,0.619206 -0.338535,2.489471 -2.993679,1.972486 -3.065107,2.766192 -1.1046,12.274224 0.536255,2.600716 0.347789,3.25 -0.943366,3.25 -4.140164,0 -1.092517,4.153736 5.253311,7.159905 4.116948,1.950296 6.23833,1.714041 12.924917,-1.43943 z M 59.606989,55.418213 C 58.668263,52.971933 58.871791,52.648706 60.5,54 c 1.662377,1.37965 1.990222,3 0.606989,3 -0.491156,0 -1.166156,-0.711804 -1.5,-1.581787 z M 22,83 c 0,-0.55 -0.423442,-1 -0.940983,-1 -0.517541,0 -1.219098,0.45 -1.559017,1 -0.339919,0.55 0.08352,1 0.940983,1 C 21.298442,84 22,83.55 22,83 z m 11,-6.833333 c 0,-2.108334 -0.3375,-4.164509 -0.75,-4.56928 -0.4125,-0.40477 -1.2,-3.51727 -1.75,-6.916666 -0.938436,-5.800211 -1.178299,-6.201069 -3.896155,-6.511247 -2.896155,-0.330525 -2.896155,-0.330525 -2.291834,-10.25 0.632342,-10.379433 0.01954,-11.881312 -2.979984,-7.303459 C 18.285385,45.265779 18.886795,56.220755 22.61577,64 c 2.812102,5.866499 4.047063,8.922214 5.75911,14.25 C 29.545142,81.891784 33,80.335583 33,76.166667 z M 77.97721,62.566239 C 80.096146,56.407446 80.714268,47 79,47 c -0.55,0 -1,1.139123 -1,2.531385 0,1.392261 -0.675,2.790406 -1.5,3.106989 -0.921241,0.353513 -1.5,1.871186 -1.5,3.933431 0,2.259809 -0.613159,3.68598 -1.875087,4.361344 -2.859952,1.530599 -3.301104,4.89066 -0.9507,7.241064 2.520257,2.520257 3.248662,1.816332 5.802997,-5.607974 z M 18.298316,34.967241 c 0.654436,-2.502567 -0.492423,-2.515224 -2.74129,-0.03025 -2.006109,2.216726 -1.214748,4.853763 0.923937,3.078812 0.716599,-0.594724 1.534408,-1.966575 1.817353,-3.048558 z M 34,28.71434 c 0,-1.624427 -5.479052,-0.234634 -5.802482,1.471833 -0.280631,1.480659 0.0535,1.545349 2.74145,0.530762 C 32.622536,30.08146 34,29.180292 34,28.71434 z"
     style="fill:#bdc2c6" />
  <path
     d="M 49.5,96.038037 C 48.4,95.704102 46.15,94.820695 44.5,94.07491 42.85,93.329125 40.073686,92.103235 38.330414,91.35071 36.587141,90.598185 34.977346,89.432038 34.753091,88.759272 34.469653,87.908959 32.082534,87.615439 26.922677,87.796443 15.334979,88.202932 8.1454546,81.575197 17.729735,79.321837 22.074954,78.300233 23.570556,72.390546 20.645913,67.798921 19.840547,66.534515 17.828656,60.775 16.175045,55 14.521434,49.225 12.514027,42.925 11.714141,41 10.914255,39.075 10.478452,36.825 10.745689,36 11.532021,33.572478 24.234177,20.994087 27.5,19.408937 c 1.65,-0.80087 5.475,-2.78797 8.5,-4.415778 3.609342,-1.942254 6.968644,-2.965411 9.772343,-2.976405 3.608017,-0.01415 4.971774,-0.661467 8.770453,-4.1629673 C 58.666449,4.0527361 61.894624,3.012192 59.093942,6.3868063 57.436631,8.3837442 59.231884,9.2425355 62.481184,8.007154 66.046353,6.651679 66.465849,6.73376 65,8.5 63.959934,9.7532023 64.10432,10 65.877555,10 c 2.870314,0 2.679367,1.425219 -0.377555,2.818046 -3.372125,1.536443 -3.146451,2.794917 0.880129,4.908064 1.859071,0.97564 5.571571,4.684345 8.25,8.241567 2.678429,3.557222 6.444871,7.519327 8.369871,8.804678 10.681118,7.131939 11.687335,9.502693 5.430251,12.794261 -2.160685,1.136639 -4.075839,2.936639 -4.255897,4 C 83.994297,52.629977 82.903779,57.1 81.75098,61.5 c -1.152798,4.4 -2.136169,10.25 -2.18527,13 -0.106892,5.986709 -0.692726,7.06896 -4.306262,7.955248 -1.517696,0.372243 -5.49138,3.504489 -8.830408,6.960546 C 60.162793,95.901666 55.307332,97.801008 49.5,96.038037 z m 8.122882,-5.161261 C 64.088299,88.062096 65.540505,86.664275 68.501223,80.405831 71.681748,73.682754 71.641019,72.850043 68,70.158121 c -2.832783,-2.094367 -3.850575,-4.974212 -2.304422,-6.520365 0.382567,-0.382568 0.760234,-3.501996 0.839259,-6.932062 0.07903,-3.430066 0.666015,-7.212472 1.304422,-8.405347 C 68.477667,47.107472 69,44.751899 69,43.065741 c 0,-3.06628 2.134439,-4.275266 3.538122,-2.004058 0.360886,0.583926 1.737444,1.472788 3.059017,1.975249 2.879554,1.094805 3.577051,8.298511 0.902861,9.324694 -0.825,0.316583 -1.5,1.798225 -1.5,3.292538 0,1.494313 -0.848279,3.645937 -1.885065,4.781385 -3.044573,3.334301 -3.405638,5.991393 -1.097943,8.079828 C 79.012533,74.846255 82.649795,51.619877 76.639115,39 75.198348,35.975 74.015142,32.739058 74.009769,31.809017 73.995738,29.380289 72.285518,28.66739 71.186082,30.631973 70.4316,31.980157 69.349056,32.182626 65.624622,31.672136 62.837513,31.29012 61,31.427992 61,32.01913 c 0,1.42274 -4.201758,1.143633 -6.255999,-0.415562 -1.267405,-0.961977 -2.93686,-1.104367 -6,-0.511748 C 42.972611,32.208398 40,32.189144 40,31.035184 c 0,-2.994094 11.50857,-4.313122 17.559541,-2.012547 1.688056,0.641798 3.027035,0.717635 3.205725,0.181565 1.219973,-3.659919 3.004245,-4.63075 5.875187,-3.196717 1.572751,0.785587 3.197047,1.59278 3.609547,1.793761 C 70.6625,28.002227 71,27.538793 71,26.771392 71,24.716088 65.251687,20.82454 62.702172,21.153848 59.447775,21.574203 57.604874,20.181024 59.073886,18.410972 59.971922,17.328906 59.954698,16.650341 59,15.5 57.018483,13.112418 55.10104,13.689099 55.311736,16.609264 55.629263,21.010069 52.833861,21.817595 48.10809,18.690228 42.208556,14.786102 35.055299,16.291122 31.952167,22.089377 30.668131,24.48862 31.115281,24.478066 35.738815,22 c 5.975864,-3.202871 9.139663,-2.343199 7.729371,2.100238 -0.940779,2.964132 -6.437849,5.055647 -10.343568,3.935502 -2.623146,-0.752308 -3.344493,-0.559912 -4.595113,1.225599 -1.916194,2.735749 -1.548063,2.989693 2.359384,1.62755 4.085368,-1.424167 5.020906,-0.507203 2.41296,2.365054 C 29.888666,37.013044 29.435766,41 32.421931,41 c 1.353019,0 2.670206,0.340064 2.927082,0.755697 0.756617,1.224233 -0.499776,6.26916 -1.419688,5.700623 -0.463088,-0.286203 -0.605952,-1.135441 -0.317477,-1.887194 0.887439,-2.312631 -1.44028,-2.758221 -2.645414,-0.506407 -0.778176,1.454034 -0.827496,2.953019 -0.157208,4.778009 0.537188,1.462599 1.541029,5.359272 2.230756,8.659272 1.739829,8.324207 3.608237,11.280352 5.765914,9.122676 C 40.062153,66.366418 40.15,65.75 39.207143,64.807143 37.612171,63.212171 37.644999,59.716764 39.25,60.243786 c 0.6875,0.225748 1.38976,1.585989 1.560577,3.022756 0.237119,1.994443 0.946678,2.685762 3,2.922881 C 46.5,66.5 46.5,66.5 43.221587,68.482392 c -3.510371,2.122651 -3.673712,3.935618 -0.982199,10.901699 0.951481,2.462592 0.835961,3.087644 -0.790443,4.2769 -2.476206,1.810646 -1.176736,4.026878 4.146938,7.072559 4.849049,2.774146 5.953475,2.787298 12.026999,0.143226 z M 34.549489,54.080075 c -0.772466,-1.249877 3.789505,-4.706819 8.079996,-6.122809 5.109742,-1.686367 4.945461,-0.813413 -0.630299,3.349279 -5.128871,3.829057 -6.48525,4.334039 -7.449697,2.77353 z M 21.782302,83.154497 c 0.286576,-0.860627 -0.194252,-1.220995 -1.334268,-1 -0.980266,0.190026 -1.983917,0.95098 -2.230336,1.691006 -0.286576,0.860627 0.194252,1.220995 1.334268,1 0.980266,-0.190026 1.983917,-0.95098 2.230336,-1.691006 z M 33.47642,76.738706 C 33.463452,74.957418 33.029289,72.825 32.511613,72 31.993938,71.175 31.084476,67.81555 30.490586,64.534555 29.569984,59.448617 29.048777,58.481046 26.955393,57.971805 24.538137,57.383779 24.503465,57.224041 24.723063,47.687251 24.94632,37.991592 24.440706,36.565403 21.872445,39.646494 17.602804,44.768693 18.146186,58.025388 22.902893,64.785979 23.953155,66.278691 25.580375,69.975 26.518937,73 c 2.541177,8.19025 7.007366,10.590222 6.957483,3.738706 z M 17.443296,36.777494 C 20.010357,33.112501 19.389768,31.285204 16.5,34 c -2.503774,2.352173 -3.32815,5 -1.556704,5 0.518813,0 1.643813,-1.000128 2.5,-2.222506 z"
     style="fill:#b9bbc3" />
  <path
     d="M 46.5,94.717934 C 45.4,93.937185 43.204839,92.983207 41.621865,92.597983 40.038891,92.212759 37.435071,90.588917 35.835598,88.989444 33.012064,86.16591 32.767556,86.110872 27.43047,87.097486 21.961367,88.108505 18,87.648403 18,86.002163 c 0,-0.474683 0.977252,-1.006859 2.171672,-1.182612 4.277983,-0.629484 3.363778,-3.004706 -1.01971,-2.649336 -4.808704,0.389843 -5.616899,-1.293039 -1.173882,-2.444341 4.850567,-1.256908 5.838341,-4.63774 3.214699,-11.002881 C 17.790272,60.46827 15.051942,51.721711 15.017999,49 15.000851,47.625 14.092752,45.15 13,43.5 9.0949591,37.603586 15.974891,25.939576 26.861304,20 38.22958,13.797523 42.335217,12.180139 45.434773,12.683128 c 2.589722,0.420254 3.950856,-0.06043 6.660084,-2.352003 7.098309,-6.0040367 7.28504,-6.1034341 6.435071,-3.4254194 -0.712314,2.244303 -0.568685,2.3520458 2.355754,1.7671579 3.192552,-0.6385103 3.942798,0.098657 2.038495,2.0029595 -0.767763,0.767763 -0.266655,0.946371 1.75,0.623747 C 67.5,10.847495 67.5,10.847495 65,12.952247 c -2.5,2.104752 -2.5,2.104752 -0.121689,3.826253 3.166552,2.292056 6.797669,5.973739 11.474645,11.634439 2.119126,2.564848 6.506626,6.53478 9.75,8.822069 7.196596,5.075178 7.749488,7.678175 2.215952,10.432634 C 83.828505,49.902855 83.482099,50.57134 81.928317,60 81.248543,64.125 80.311583,67.9275 79.846183,68.45 79.380782,68.9725 79,71.961139 79,75.09142 c 0,5.669634 -0.01474,5.697318 -3.850056,7.231908 -2.117531,0.847267 -6.334383,4.125708 -9.370782,7.285423 C 59.670564,95.965434 51.360409,98.167714 46.5,94.717934 z M 57.982017,90.923053 C 68.854383,85.991396 74.137168,74.600159 67.838115,69.670409 64.912686,67.380917 64.76453,66.982689 65.856967,64.345311 66.506373,62.777508 66.981104,59.920939 66.911926,57.99738 66.842747,56.073821 67.273528,52.7 67.869217,50.5 c 0.595688,-2.2 1.093805,-5.4625 1.106926,-7.25 0.02749,-3.745323 0.966219,-4.076158 3.529405,-1.243869 0.998538,1.103372 2.039378,1.782276 2.312979,1.508676 0.2736,-0.2736 1.101359,0.0037 1.839464,0.616314 C 78.460143,45.626774 78.363229,50.453657 76.5,52 75.675,52.684689 75,54.291604 75,55.570923 c 0,1.279318 -1.125,3.539928 -2.5,5.023578 -2.920424,3.151189 -3.132138,5.049513 -0.845012,7.576758 3.263938,3.606612 4.42652,2.1469 8.359691,-10.496243 C 81.450305,53.06021 80.552092,45.720155 78.03532,41.5 77.05131,39.85 75.459304,36.076246 74.497527,33.113881 71.910732,25.146295 66.895617,19.980402 62.448053,20.702143 59.098799,21.245652 57.694962,19.924592 60.065143,18.45974 61.502536,17.571382 58.234083,14 55.983684,14 c -1.243619,0 -1.58655,0.626642 -1.264599,2.310819 0.861889,4.508683 -2.127992,5.269177 -7.285365,1.853075 C 43.530897,15.578772 42.424423,15.268336 40.169252,16.12575 36.817038,17.40026 31,21.793618 31,23.050891 c 0,1.422231 2.12751,1.143689 3.964865,-0.519095 2.074039,-1.876979 8.172349,-2.441639 8.750187,-0.810205 1.089183,3.075136 -4.647021,6.565048 -9.789577,5.955988 -4.248833,-0.503211 -5.052926,-0.307952 -5.997121,1.456293 -1.467782,2.742576 -0.630275,3.306469 3.020599,2.033768 3.528411,-1.230011 4.095253,0.02104 1.372638,3.029499 -1.923897,2.125883 -2.249273,13.459637 -0.582866,20.302861 3.523178,14.46819 4.196251,15.56034 8.150155,13.224712 1.635403,-0.966057 3.214076,-1.367143 3.508161,-0.891304 0.294085,0.47584 -0.590676,1.467447 -1.966135,2.20357 -1.676296,0.897126 -2.286455,1.853508 -1.850619,2.900714 0.35762,0.859269 0.988993,2.971732 1.403053,4.694361 0.414059,1.722629 1.08598,3.671092 1.493156,4.329917 0.435845,0.705213 -0.128262,1.806243 -1.371605,2.677115 -6.784311,4.751916 8.201024,11.219409 16.877126,7.283968 z M 35,53.020324 c 0,-1.109681 7.23922,-5.034529 9.210162,-4.993423 C 44.919573,48.041696 43.925,49.379591 42,51 c -3.452026,2.905816 -7,3.929824 -7,2.020324 z M 55.066805,31.334239 c -2.027321,-1.419991 -3.021292,-1.493762 -6.736857,-0.5 C 40.765051,32.85754 36.988954,31.681831 42.161395,28.913624 46.044934,26.835217 60,28.942224 60,31.606989 c 0,1.8702 -2.034282,1.757728 -4.933195,-0.27275 z M 65,31.120162 c -2.882223,-0.809502 -4.013651,-4.793957 -1.621912,-5.711753 2.078459,-0.79758 7.747153,2.702751 7.388982,4.562582 C 70.429224,31.725286 68.513618,32.106998 65,31.120162 z M 36,79.5 C 36,78.675 35.294676,78 34.432612,78 c -1.083301,0 -1.381651,-0.585203 -0.966005,-1.894786 0.33076,-1.042133 -0.05018,-3.404633 -0.846533,-5.25 C 31.823721,69.009846 30.795924,65.25 30.33608,62.5 c -0.737074,-4.407916 -1.106499,-4.971086 -3.119703,-4.755832 -3.117926,0.333372 -3.46057,-1.152839 -2.457876,-10.660997 0.879441,-8.33939 0.587377,-9.536863 -2.076702,-8.51456 -5.524107,2.119798 -5.490376,15.267332 0.0682,26.583716 2.3375,4.75878 4.25,9.564138 4.25,10.678572 0,1.114434 0.707143,2.733387 1.571429,3.597672 C 30.625541,81.482684 36,81.534362 36,79.5 z M 19.42783,33.256292 c 0.912884,-2.913781 -1.203973,-2.160719 -3.764485,1.339197 -2.54568,3.479643 -1.388125,6.602614 1.212782,3.271968 1.016813,-1.302101 2.16508,-3.377126 2.551703,-4.611165 z M 83.5,39 C 83.160081,38.45 82.458524,38 81.940983,38 81.423442,38 81,38.45 81,39 c 0,0.55 0.701558,1 1.559017,1 0.857459,0 1.280902,-0.45 0.940983,-1 z"
     style="fill:#a6a7a8" />
  <path
     d="m 43,92.866294 c -3.575,-1.642038 -7.4,-4.074901 -8.5,-5.406362 -1.851191,-2.240718 -2.33044,-2.34432 -6.441122,-1.392406 -5.288197,1.224592 -11.217891,0.77072 -7.260454,-0.555731 1.385614,-0.464429 2.167512,-1.414041 1.968792,-2.39109 C 22.464593,81.632798 19.941603,81.147199 17.5,82.106927 16.95,82.323117 16.396059,82.05 16.269019,81.5 c -0.12704,-0.55 0.959606,-1.318412 2.414767,-1.707582 4.522646,-1.209542 5.567383,-5.268767 2.867472,-11.141289 C 19.198005,63.532614 15,50.803057 15,48.785832 15,47.759802 14.1,45.156178 13,43 11.9,40.843822 11,38.201341 11,37.127819 11,34.985391 22.893939,22.414792 27.197888,20.008414 37.816993,14.071175 40.46232,13 44.505565,13 47.925374,13 49.818195,12.258523 53.423404,9.5066051 56.589673,7.0897372 58,6.4734158 58,7.5066051 58,8.4514872 58.963204,9 60.622445,9 c 2.328709,0 2.46872,0.186227 1.25,1.662621 -1.069969,1.296193 -1.096955,1.755343 -0.122445,2.083334 0.6875,0.231391 1.25,1.20157 1.25,2.155952 0,0.954382 1.338537,2.379382 2.974527,3.166666 1.63599,0.787285 5.141858,4.129794 7.790819,7.427798 2.64896,3.298004 7.835423,8.41741 11.525473,11.376456 7.863648,6.305852 8.252434,7.985708 2.493722,10.77481 C 83.28211,49.828287 80.941943,57.12088 79.328161,74 c -0.603916,6.316576 -1.412354,7.639945 -5.17159,8.465611 -1.513901,0.332509 -4.534357,2.717651 -6.85874,5.416094 C 59.784583,96.604052 53.807385,97.830247 43,92.866294 z M 58.35189,90.994485 C 68.108851,86.570468 73.919414,75.575547 69.118269,70.622022 65.798215,67.196597 65.822726,68.534007 68.662437,45.75 c 0.592687,-4.755341 2.378771,-6.242229 4.037873,-3.361469 0.439829,0.763693 1.69969,1.568647 2.79969,1.788788 2.40238,0.480783 2.381883,6.19073 -0.0318,8.857816 C 74.660692,53.927425 74,55.751302 74,57.088194 c 0,1.336892 -0.838463,2.954341 -1.863252,3.594332 -2.579088,1.610668 -3.199515,4.782849 -1.429654,7.309679 6.591162,9.410203 13.202301,-14.339014 7.40365,-26.596158 C 76.522521,38.038873 74.918775,33.906669 74.546864,32.21337 73.28518,26.46896 66.358184,19.842178 62.392825,20.586084 58.938641,21.234093 58.073276,20.326724 60.157618,18.242382 61.897664,16.502336 59.373101,14 55.877555,14 53.027155,14 51.907121,15.46904 54.17991,16.226637 55.972299,16.8241 54.327483,20 52.225664,20 51.215257,20 48.863708,18.875 47,17.5 c -4.272431,-3.1521 -5.295955,-3.12806 -10.64402,0.25 -5.678647,3.586869 -12.706189,17.113345 -7.421721,14.285184 3.659063,-1.958271 5.680504,-1.371971 3.515997,1.019782 -1.204487,1.330944 -1.91349,3.749565 -2.012335,6.864676 -0.08394,2.64534 -0.438822,5.272799 -0.788629,5.838799 -0.349808,0.566 -0.01393,2.539396 0.746399,4.385325 0.760326,1.845929 1.703064,5.744169 2.094972,8.662756 0.505699,3.766003 1.693842,6.592071 4.092714,9.734765 4.607497,6.036149 6.316534,12.806841 3.905221,15.471312 -2.323071,2.566965 5.378167,9.475131 11.123087,9.977632 0.06143,0.0054 3.094519,-1.342713 6.740205,-2.995746 z M 35,53.485302 C 35,52.789609 41.264032,49.00843 42.424314,49.003738 42.932687,49.001682 42.291745,50.125 41,51.5 c -2.03704,2.16833 -6,3.479608 -6,1.985302 z M 56.352327,32.006691 C 53.128931,30.706126 52.498307,29 55.240983,29 57.56543,29 60,30.637024 60,32.2 c 0,0.97938 -0.85329,0.93416 -3.647673,-0.193309 z M 41,31.035184 C 41,29.574521 44.510731,28 47.767592,28 c 4.647569,0 4.656529,1.300297 0.01852,2.687597 C 42.622744,32.23204 41,32.315157 41,31.035184 z m 24.005251,0.08213 c -2.691433,-0.760584 -3.540489,-2.781387 -2.10572,-5.011738 0.741359,-1.152444 1.530133,-1.003145 4.545303,0.860332 5.257731,3.249457 3.70696,5.888384 -2.439583,4.151406 z M 32,26.977329 c -1.271061,-0.840634 -1.118434,-1.293009 1,-2.963936 6.281,-4.954176 12.848901,-4.764806 9.546528,0.275252 C 40.289286,27.733633 35.131658,29.048495 32,26.977329 z m 4.351478,52.549118 C 36.664476,78.710786 36.157879,77.628106 35.216797,77.10145 34.281722,76.578155 33.824811,75.841856 34.201438,75.465229 34.578065,75.088602 34.011816,73.149015 32.943107,71.155035 31.874398,69.161056 31,66.314749 31,64.829909 31,60.660038 29.187526,56.714062 27.559215,57.338904 24.095115,58.668203 23.581167,54.458265 25.595085,41.25 26.009108,38.534638 25.773084,38 24.160323,38 17.565198,38 16.247501,57.691239 22.356861,64.950354 23.890321,66.772403 27,74.898369 27,77.083433 c 0,3.645716 8.079954,5.756552 9.351478,2.443014 z M 84,39.559017 C 84,37.966387 82.185641,36.481025 81.30993,37.356736 80.487291,38.179376 81.771449,41 82.968615,41 83.535877,41 84,40.351558 84,39.559017 z M 18.365492,35.777883 c 1.159993,-2.000155 1.775526,-3.970198 1.36785,-4.377874 C 18.506169,30.172836 14,35.169675 14,37.757647 c 0,3.257148 1.80238,2.439763 4.365492,-1.979764 z"
     style="fill:#9ca1a3" />
  <path
     d="m 43.358335,92.959453 c -3.377916,-1.577699 -7.071411,-4.050524 -8.207767,-5.495166 -2.016547,-2.563624 -2.194087,-2.59798 -7.402256,-1.432443 -5.755371,1.287995 -11.347941,0.854484 -6.998312,-0.542478 2.745238,-0.881684 2.959256,-3.491131 0.342454,-4.17544 -1.876728,-0.490775 -1.876728,-0.529652 0,-2.40638 2.246831,-2.246831 2.470875,-6.915402 0.513839,-10.707206 C 19.571599,64.258073 15,50.281459 15,48.003116 15,46.927989 14.101682,44.574963 13.003738,42.77417 9.8444089,37.592395 10.416785,35.892726 17.75,28.680168 28.30847,18.295422 37.646034,13 45.399274,13 c 3.179111,0 5.040776,-0.738343 7.988879,-3.168418 3.359622,-2.7692843 3.958532,-2.9634752 4.75429,-1.5415334 0.534218,0.9545948 1.567066,1.3749178 2.499403,1.0171463 1.254881,-0.4815428 1.445399,-0.1574401 0.906166,1.5415331 C 61.140323,12.133241 61.295281,13 61.932612,13 62.519676,13 63,13.845406 63,14.87868 c 0,1.151396 1.180557,2.367682 3.049551,3.141845 1.677254,0.694741 4.353271,3.111835 5.946705,5.37132 3.822026,5.419624 9.688258,11.314358 15.433952,15.508945 5.522646,4.031751 5.541844,5.818032 0.09292,8.645628 C 83.305712,49.734952 80.782774,57.856693 79.30559,74 c -0.56846,6.212376 -1.33456,7.539471 -4.863684,8.425225 -1.361833,0.341798 -5.145954,3.250215 -8.409158,6.463148 -8.22467,8.097964 -12.434417,8.853804 -22.674413,4.07108 z M 58.464737,91.08866 C 68.03826,86.747818 73.865894,75.520329 69.098529,70.601656 66.046364,67.452621 66.046364,67.452621 67.03114,59.476311 67.572766,55.08934 68.300291,49.1375 68.647861,46.25 c 0.639346,-5.311488 2.628854,-7.104231 3.797556,-3.421975 0.346341,1.091222 1.481916,1.796577 2.817388,1.75 2.657419,-0.09268 2.795557,5.595017 0.205399,8.45711 C 74.660692,53.927425 74,55.751302 74,57.088194 c 0,1.336892 -0.838463,2.954341 -1.863252,3.594332 -3.101097,1.936668 -3.31859,5.226541 -0.529885,8.015246 6.667541,6.667541 12.42637,-17.644711 6.568406,-27.730071 C 77.067473,39.060466 75.646521,35.546714 75.017598,33.159365 73.220027,26.335911 66.545949,19.674998 62.303956,20.4708 c -3.393141,0.636557 -4.187047,-0.187709 -2.146338,-2.228418 2.660545,-2.660545 -3.703461,-6.063155 -6.861142,-3.668412 -1.688544,1.280569 -1.691337,1.364334 -0.04648,1.394227 1.943123,0.03531 2.01253,0.184085 1.143011,2.450016 C 53.51908,20.695641 50.888628,20.368939 47,17.5 c -4.346847,-3.207002 -5.681144,-3.146454 -11.198628,0.508176 -5.682119,3.763679 -12.069813,16.811408 -6.867113,14.027008 3.673775,-1.966145 5.677506,-1.368658 3.495584,1.042339 -1.154975,1.276232 -1.919506,3.686826 -1.982218,6.25 -0.05615,2.294862 -0.44201,5.206571 -0.857473,6.470465 -0.43917,1.336009 -0.298589,2.848398 0.335821,3.612815 0.600165,0.723155 1.562432,3.96406 2.13837,7.202012 1.465268,8.237803 1.669782,8.777616 4.833978,12.759239 4.219562,5.309628 5.890052,12.099322 3.599541,14.630308 -2.246552,2.482412 -1.041831,4.150096 5.436389,7.525549 5.718872,2.979797 4.928861,3.00749 12.530486,-0.439251 z M 35,53.485302 C 35,52.789609 41.264032,49.00843 42.424314,49.003738 42.932687,49.001682 42.291745,50.125 41,51.5 c -2.03704,2.16833 -6,3.479608 -6,1.985302 z M 56.25,31.779505 C 53.546831,30.475816 53.307897,29 55.8,29 c 1.854793,0 4.2,1.786825 4.2,3.2 0,1.031612 -0.96299,0.92363 -3.75,-0.420495 z M 41,31.035184 C 41,29.665318 44.438847,28 47.267592,28 c 3.983769,0 3.979718,1.271791 -0.0085,2.660728 C 42.75775,32.228385 41,32.333543 41,31.035184 z m 24.036625,-0.133341 c -3.322253,-1.342266 -3.364151,-1.421339 -2.052112,-3.872905 1.146554,-2.142355 1.146554,-2.142355 4.33102,-0.126094 5.194035,3.28863 3.466412,6.320239 -2.278908,3.998999 z M 32.75,27.345805 C 30.16898,26.619501 30.603158,25.40777 34.25,23.15951 39.42096,19.971639 43,19.37484 43,21.700462 c 0,4.195927 -5.207831,7.064219 -10.25,5.645343 z m 3.893807,50.168354 C 36.297482,76.611651 35.566102,76.15013 35.018517,76.488556 34.43874,76.846878 34.277612,76.440128 34.632736,75.514693 34.96814,74.640642 34.479626,73.082475 33.547149,72.0521 32.614672,71.021724 31.508111,67.646499 31.088124,64.5516 30.268274,58.510095 29.613854,57.406329 26.5,56.813111 24.43138,56.41902 24.059142,50.296962 25.553719,41.25 26.011702,38.477743 25.793358,38 24.068366,38 17.12118,38 16.405759,53.255777 22.75,66.113122 25.0875,70.850339 27,75.632739 27,76.740678 c 0,2.445793 1.664222,3.933398 5,4.469371 3.047066,0.489584 5.5006,-1.463122 4.643807,-3.69589 z M 84,39 C 82.784546,36.728903 81,36.332337 81,38.333333 81,40.041464 81.971182,41 83.70185,41 84.76049,41 84.828001,40.547134 84,39 z M 17.931906,37.09563 C 20.081827,34.076343 20.665736,31 19.088894,31 c -1.659437,0 -6.015637,6.02733 -5.44013,7.527078 0.83922,2.186971 1.977477,1.806559 4.283142,-1.431448 z"
     style="fill:#9b9ca2" />
  <path
     d="m 46.5,94 c -2.2,-1.062675 -4.621865,-1.947406 -5.381923,-1.966069 -0.760058,-0.01866 -2.920699,-1.665509 -4.801426,-3.659661 -3.419504,-3.62573 -3.419504,-3.62573 -9.392845,-2.358101 -6.345941,1.346701 -8.507105,0.901555 -4.926488,-1.014734 2.034936,-1.089064 2.066122,-1.273853 0.505942,-2.997833 -1.295408,-1.43141 -1.424177,-2.282853 -0.582964,-3.854673 C 23.55108,75.10178 23.226156,71.363626 20.9412,66.884743 19.80886,64.665173 19.025906,62.103995 19.201303,61.193236 19.58622,59.194518 27,74.046087 27,76.815888 c 0,2.437145 1.626407,3.76651 5.663429,4.62908 4.731258,1.010904 5.178337,-1.905325 1.382587,-9.0184 C 32.370707,69.28711 31,65.402225 31,63.79349 31,59.904738 29.345912,57 27.131483,57 24.428934,57 24.384647,56.784501 25.138584,47.302659 25.91283,37.565404 25.382261,36.05973 22.110729,38.710081 19.744163,40.627297 18.112734,46.024797 17.942638,52.5 c -0.105076,4 -0.105076,4 -1.478753,1 C 15.708363,51.85 15.069911,49.513222 15.045104,48.30716 15.020297,47.101098 14.05251,44.508444 12.894467,42.545707 11.584553,40.325568 11.008339,38.10291 11.369571,36.663647 12.019559,34.07389 24.699007,21 26.560642,21 27.2176,21 28.304921,20.337519 28.976911,19.52782 31.108427,16.959501 41.065734,13 45.392999,13 c 3.159611,0 5.042479,-0.734574 7.881776,-3.0749626 3.13826,-2.5868188 3.828221,-2.8202098 4.346269,-1.4701989 0.416296,1.0848519 1.274408,1.3957315 2.648652,0.9595632 1.559563,-0.4949859 1.895073,-0.2861658 1.44108,0.8969223 -0.940483,2.450857 1.514389,6.546558 4.890766,8.159742 1.705848,0.81503 4.26202,3.179961 5.680383,5.255403 3.394739,4.967407 9.381061,10.964018 15.148283,15.174321 5.506561,4.020009 5.520225,5.712978 0.06893,8.539675 -3.980724,2.06415 -4.00636,2.115343 -5.568927,11.120525 -0.863386,4.975756 -1.918875,9.611658 -2.345532,10.302003 -0.426657,0.690346 -0.758259,3.512008 -0.736892,6.270361 0.03737,4.823935 -0.101996,5.079548 -3.654468,6.70293 -2.031323,0.928259 -6.123483,4.042369 -9.093689,6.920246 C 58.605351,96.017845 53.503244,97.382807 46.5,94 z M 59,90.726389 C 68.577392,85.972483 73.859774,75.537837 69.171237,70.63446 65.864316,67.176008 65.906503,68.893122 68.58442,46.75 c 0.713186,-5.897184 2.652994,-7.728057 3.928844,-3.70821 0.463441,1.460175 1.194775,1.868262 2.567387,1.432612 1.209429,-0.383857 1.960291,-0.121908 2.03004,0.70821 0.274887,3.271563 -0.409676,6.445312 -1.703158,7.896129 C 74.63339,53.947048 74,55.618715 74,56.793557 c 0,1.174841 -0.848237,2.590038 -1.884972,3.144882 -3.366061,1.801461 -3.660561,6.195563 -0.592129,8.834916 C 78.49403,74.76967 84.128766,51.217536 78.175269,40.967701 77.067473,39.060466 75.638135,35.475 74.998962,33 73.247969,26.219824 66.588408,19.684183 62.25,20.488268 60.271913,20.854888 59,20.681535 59,20.045313 59,19.470391 59.45,19 60,19 c 1.916706,0 0.982388,-2.965434 -1.432942,-4.548019 -2.009151,-1.316446 -2.836084,-1.37837 -4.747337,-0.355499 -1.411113,0.755205 -1.827573,1.400901 -1.067058,1.654406 C 53.438698,15.979566 54,17.029167 54,18.083333 54,20.760888 51.091347,20.518501 47,17.5 40.04304,12.367318 30.349003,18.695571 27.468706,30.25 26.796552,32.946372 28.179018,34.137394 29.5,32 c 0.339919,-0.55 1.561221,-1 2.714005,-1 2.050926,0 2.056026,0.04414 0.237318,2.053788 -2.484891,2.745773 -3.764387,14.429411 -1.965261,17.945652 0.703692,1.375308 1.601302,4.876674 1.994688,7.780813 0.46244,3.413921 1.845199,6.948471 3.912123,10 4.721609,6.970808 6.350183,12.619548 4.245194,14.724537 -2.756618,2.756618 -0.953568,5.28054 6.13967,8.594352 C 51.720634,94.40836 51.541676,94.42846 59,90.726389 z M 36,52.975249 c 0,-0.563613 1.154295,-1.463613 2.5651,-2 C 42.298973,49.555633 42.583823,49.759062 40,52 c -2.534443,2.198111 -4,2.555432 -4,0.975249 z M 56.25,31.723132 C 55.0125,31.157314 54,30.313138 54,29.847186 c 0,-1.382264 3.658537,-0.96355 4.926114,0.563786 1.56178,1.881831 0.118047,2.589726 -2.676114,1.31216 z M 41,31.035184 C 41,29.665318 44.438847,28 47.267592,28 c 3.983769,0 3.979718,1.271791 -0.0085,2.660728 C 42.75775,32.228385 41,32.333543 41,31.035184 z m 25.188851,0.243838 c -2.580644,-0.484775 -3.714912,-2.465746 -2.790772,-4.874015 0.542288,-1.41318 0.981946,-1.360795 3.856988,0.459553 4.835208,3.061436 4.266464,5.416208 -1.066216,4.414462 z M 33.192368,27.286715 c -3.313787,-0.633168 -2.236059,-2.388218 3.1772,-5.173978 5.095576,-2.622274 7.363621,-1.99817 6.188909,1.703019 -0.47973,1.511496 -6.320195,4.909539 -6.9577,4.048062 -0.05543,-0.0749 -1.139212,-0.334597 -2.408409,-0.577103 z M 84,39 C 82.784546,36.728903 81,36.332337 81,38.333333 81,40.041464 81.971182,41 83.70185,41 84.76049,41 84.828001,40.547134 84,39 z M 17.931906,37.09563 c 3.81683,-5.360245 2.75695,-8.251153 -1.473933,-4.02027 -2.407822,2.407823 -3.334203,4.083605 -2.893011,5.233333 0.923775,2.40732 2.002343,2.107711 4.366944,-1.213063 z"
     style="fill:#969798" />
  <path
     d="M 53,94.464463 C 53,93.623169 62.193886,89.897962 63.333053,90.277684 64.879608,90.793203 57.573805,95 55.131966,95 53.959385,95 53,94.759008 53,94.464463 z M 38.536967,90.033675 c -1.629668,-1.074231 -3.313093,-2.89945 -3.740945,-4.056042 -0.683382,-1.847359 -1.304878,-2.023871 -5.114505,-1.452582 -5.742408,0.861127 -7.662283,-1.669822 -6.943228,-9.153176 0.286257,-2.979128 -0.0058,-6.003157 -0.706091,-7.311712 -0.656831,-1.2273 -0.944089,-2.481606 -0.63835,-2.787344 0.670797,-0.670797 4.598306,8.027201 5.521082,12.227181 0.501805,2.283944 1.48569,3.273191 4.1221,4.144567 6.320967,2.089181 7.986343,-2.629924 3.38295,-9.58612 -1.41901,-2.14427 -2.43151,-4.896473 -2.25,-6.116006 C 32.577327,63.205561 40,73.330653 40,76.623185 c 0,1.087248 0.529367,2.506182 1.176371,3.153186 0.901829,0.901829 0.785138,1.60868 -0.5,3.028741 -2.238567,2.473589 -2.116221,4.903249 0.323629,6.426961 1.988834,1.242047 2.682281,2.773921 1.25,2.761338 -0.4125,-0.0036 -2.083365,-0.885506 -3.713033,-1.959736 z m 29.874872,-7.30876 c 4.182838,-7.89794 4.34227,-9.293301 1.417551,-12.406521 -2.83045,-3.012876 -1.861696,-3.918247 1.425677,-1.332398 3.646454,2.868301 4.586428,2.555318 6.715302,-2.235996 1.694871,-3.814535 1.895594,-3.974276 1.958994,-1.559017 0.03885,1.480041 -0.430998,3.00101 -1.044107,3.379933 -0.683451,0.422395 -0.934452,2.565295 -0.64875,5.538646 0.500011,5.203715 -0.573874,6.994623 -5.003984,8.345092 -1.247113,0.380169 -3.649285,2.120895 -5.338161,3.868281 C 64.823678,89.5 64.823678,89.5 68.411839,82.724915 z M 67.56635,60.501985 C 67.161167,58.342175 67.499017,55.29658 68.456701,52.475787 69.305515,49.975662 70,46.595832 70,44.965053 c 0,-3.679295 1.552886,-3.882633 2.446947,-0.320408 0.498428,1.985892 0.948882,2.359526 1.808408,1.5 C 74.88491,45.51509 75.76,45 76.2,45 c 1.420167,0 0.848698,5.714695 -0.7,7 C 74.675,52.684689 74,54.298957 74,55.587261 74,56.906177 73.126137,58.39731 72,59 c -1.1,0.588702 -2,1.702977 -2,2.476167 0,3.037338 -1.817577,2.309767 -2.43365,-0.974182 z M 30.465921,58.700746 c -0.665749,-1.516836 -1.671082,-2.102514 -3.235048,-1.884647 -2.26196,0.3151 -2.267285,0.2843 -1.685793,-9.75 C 26.020642,38.859737 25.871629,37 24.738521,37 c -2.444307,0 -5.921988,4.715926 -6.393522,8.669968 -0.853125,7.153856 -3.284542,8.281942 -3.329686,1.544849 -0.0084,-1.256851 -0.7212,-3.362503 -1.58395,-4.679226 -2.205672,-3.366281 -1.485824,-8.442432 1.474475,-10.397552 2.349994,-1.552046 2.378192,-1.537271 1.214816,0.636516 C 15.465592,33.99855 14.495465,35 13.964816,35 c -1.241629,0 -1.219158,3.059743 0.03672,5 1.170522,1.808386 5.544599,-2.817531 6.618911,-7 0.353183,-1.375 1.801268,-4.075 3.217965,-6 2.665241,-3.621513 1.893745,-3.32375 -3.763506,1.452546 -1.78684,1.508591 -1.549453,0.933952 0.901973,-2.183392 1.829885,-2.326966 4.271177,-4.516187 5.425092,-4.864936 C 27.555888,21.05547 29.4,19.988906 30.5,19.034077 33.022126,16.844805 36,15.760484 36,17.031385 36,17.564123 35.611364,18 35.136364,18 c -1.989616,0 -6.042569,5.417062 -7.587977,10.141875 -1.871455,5.721642 -1.639703,6.556611 1.308756,4.715268 2.54193,-1.587462 3.899391,-0.473636 2.085881,1.711509 -1.669806,2.011993 -1.72814,13.957215 -0.101807,20.847228 1.273168,5.393817 1.123873,6.70056 -0.375296,3.284866 z M 81.675813,50.34248 C 81.304116,49.970783 81,48.822901 81,47.791633 81,46.760364 79.65,43.029129 78,39.5 c -4.16246,-8.902946 -4.143357,-11.969588 0.04954,-7.952539 2.217359,2.124365 2.897553,3.527206 2.492583,5.140736 -0.339364,1.352133 0.04552,2.725555 0.985164,3.515447 C 82.375453,40.91664 83.696648,42.0625 84.463275,42.75 86.071891,44.192583 89,44.422992 89,43.106989 c 0,-0.491156 -0.645563,-1.140737 -1.434585,-1.443513 -0.789022,-0.302777 -1.952152,-1.517584 -2.584733,-2.699572 -1.125807,-2.103589 -1.079574,-2.099494 2.184585,0.193513 5.69767,4.002499 6.095645,5.349273 2.084733,7.054865 -1.5125,0.643173 -3.683384,1.987641 -4.824187,2.987708 -1.140803,1.000066 -2.378303,1.514187 -2.75,1.14249 z M 56,31 C 54.707313,30.164601 54.733708,30.028509 56.190983,30.015313 57.121024,30.006891 58.160081,30.45 58.5,31 59.282182,32.265597 57.958372,32.265597 56,31 z M 42.5,30 c 0.339919,-0.55 1.828976,-0.993109 3.309017,-0.984687 C 47.913783,29.02729 48.173233,29.241799 47,30 c -1.975857,1.276897 -5.289166,1.276897 -4.5,0 z M 64.571429,29.428571 C 62.478967,27.33611 62.585583,26 64.845012,26 66.585202,26 70,28.867471 70,30.328741 c 0,1.296656 -3.874162,0.65424 -5.428571,-0.90017 z M 32.763426,26.434679 C 31.676829,25.341316 38.012133,21 40.69428,21 c 2.604501,0 2.871225,0.844367 1.05244,3.331704 -1.340022,1.832588 -7.758702,3.335191 -8.983294,2.102975 z M 68.505548,22.006131 C 67.50701,20.902759 67.154669,20 67.722568,20 c 1.258249,0 3.752402,2.858364 3.080469,3.530297 -0.265081,0.26508 -1.298951,-0.420794 -2.297489,-1.524166 z M 47.766055,17.486999 C 45.753084,16.119149 43.632233,15 43.053054,15 42.473874,15 42,14.55 42,14 c 0,-0.55 1.84754,-1 4.105644,-1 2.968092,0 4.966336,-0.724224 7.212045,-2.613864 1.815219,-1.5274062 3.260728,-2.1508844 3.47769,-1.5000002 C 56.999587,9.4987611 57.751683,10 58.466702,10 c 0.715019,0 1.577809,0.7875 1.91731,1.75 0.339501,0.9625 0.902003,2.380055 1.250006,3.150123 0.474451,1.049879 0.0434,0.98734 -1.72315,-0.25 -4.192782,-2.936739 -10.656325,-1.458196 -7.938948,1.816043 2.488705,2.998706 -0.299313,3.675404 -4.205865,1.020833 z m 13.654846,0.949243 c 0.860066,-0.860067 2.02455,-1.278972 2.58774,-0.930901 C 65.521731,18.440481 64.184496,20 61.869554,20 60.044277,20 60.002557,19.854586 61.420901,18.436242 z"
     style="fill:#817e84" />
  <path
     d="M 53,94.546794 C 53,94.134286 61.753696,90 62.627118,90 c 1.332346,0 -0.08545,1.839529 -2.53141,3.284392 C 57.444372,94.850575 53,95.641276 53,94.546794 z M 38.825992,90.287883 c -1.470704,-0.912394 -3.160933,-2.727584 -3.756065,-4.033754 -0.973609,-2.136839 -1.51517,-2.309907 -5.40353,-1.726811 -5.799517,0.869691 -8.064672,-2.07211 -6.801545,-8.833299 0.604791,-3.23729 0.44391,-5.165681 -0.596647,-7.151654 -0.783597,-1.49555 -1.175815,-2.968088 -0.871595,-3.272308 0.65977,-0.65977 4.515975,8.061976 5.305974,12.000752 0.618109,3.081771 1.112497,3.528972 5.196064,4.700124 5.871942,1.68405 7.13189,-2.945463 2.646332,-9.723599 -1.48776,-2.248158 -2.55651,-5.08536 -2.375,-6.304893 C 32.577327,63.205561 40,73.330653 40,76.623185 c 0,1.087248 0.529367,2.506182 1.176371,3.153186 0.901829,0.901829 0.785138,1.60868 -0.5,3.028741 -2.231616,2.465908 -2.11329,4.100907 0.497943,6.880437 2.533547,2.696837 1.468279,2.970073 -2.348322,0.602334 z m 29.6316,-7.562968 C 72.531627,74.93306 72.774182,73.0106 70,70.5 c -3.047675,-2.758108 -2.383689,-3.909399 0.90437,-1.568094 4.017464,2.860686 4.960374,2.62711 6.789606,-1.681906 0.913798,-2.152582 1.793518,-3.175521 2.065177,-2.401388 0.26029,0.741737 -0.09165,2.404152 -0.782095,3.694255 -0.731655,1.367111 -1.03185,4.011958 -0.719598,6.339971 0.586945,4.376003 -0.720183,6.272278 -5.25746,7.627091 -1.375,0.41057 -3.756584,2.151297 -5.292408,3.868281 -2.680331,2.996492 -2.650228,2.849861 0.75,-3.653295 z M 67.795584,60.29746 c -0.354285,-2.512735 -0.04787,-5.729467 0.762045,-8 0.745022,-2.088603 1.374337,-5.25996 1.398478,-7.04746 0.05287,-3.914841 1.567806,-4.283019 2.49084,-0.605355 0.498428,1.985892 0.948882,2.359526 1.808408,1.5 C 74.88491,45.51509 75.76,45 76.2,45 c 1.420167,0 0.848698,5.714695 -0.7,7 -0.825,0.684689 -1.5,2.356918 -1.5,3.716064 0,1.554917 -0.67948,2.648863 -1.832578,2.950405 -1.007918,0.263577 -2.27059,1.683948 -2.805938,3.156381 -0.94446,2.59766 -0.990954,2.552368 -1.5659,-1.52539 z m -42.34453,-4.181784 c -0.212503,-0.211379 -0.131398,-4.598879 0.180235,-9.75 C 26.111415,38.429438 25.967421,37 24.68784,37 22.330323,37 18,42.82415 18,45.994938 18,52.377744 15.103052,53.342976 14.983509,47 c -0.02591,-1.375 -0.707804,-3.373508 -1.515312,-4.44113 -0.807509,-1.067621 -1.439673,-2.867621 -1.404811,-4 0.06009,-1.951656 0.110482,-1.941703 0.967776,0.19113 0.497414,1.2375 1.30769,2.25 1.800613,2.25 C 16.064793,41 21,33.734366 21,31.919111 c 0,-0.810364 1.324633,-2.923676 2.943629,-4.69625 3.594824,-3.935828 2.926437,-4.12387 -1.811909,-0.509758 -3.557062,2.713104 -3.557062,2.713104 -0.594391,-0.99997 1.629469,-2.042191 3.490645,-3.713087 4.135946,-3.713104 C 26.318576,22.000013 28.183536,20.875 29.817631,19.5 34.38972,15.65284 35.794276,16.539058 31.666667,20.666667 29.65,22.683333 28,25.137159 28,26.119614 28,27.102068 27.476902,29.05397 26.837559,30.457173 25.396574,33.619792 26.161409,34.519168 29,33 c 2.68986,-1.43957 3.737611,-0.593694 1.943024,1.568652 -1.457114,1.755715 -1.751582,13.575213 -0.475398,19.081717 0.671367,2.896831 -2.845332,4.625051 -5.016572,2.465307 z M 81,48.041633 C 81,46.872864 79.65,43.029129 78,39.5 73.862729,30.65093 73.855297,27.529123 77.98091,31.481714 c 2.217257,2.124266 2.921757,3.642439 2.75,5.926146 -0.176984,2.353198 0.297776,3.304728 2.032813,4.074233 1.24505,0.552192 2.073632,1.499361 1.841295,2.104822 -0.262184,0.683242 0.491296,0.926167 1.986274,0.640384 2.692124,-0.514632 3.153026,-1.727698 0.97412,-2.563823 -0.789022,-0.302777 -1.952152,-1.517584 -2.584733,-2.699572 -1.125807,-2.103589 -1.079574,-2.099494 2.184585,0.193513 6.763097,4.75094 6.425255,5.417038 -5.414787,10.675916 C 81.337716,50.016667 81,49.210401 81,48.041633 z M 12,35.168615 C 12,34.173862 14.173862,32 15.168615,32 c 0.422739,0 0.522945,0.640207 0.222681,1.422681 C 14.795945,34.974143 12,36.413573 12,35.168615 z M 56,31 C 54.707313,30.164601 54.733708,30.028509 56.190983,30.015313 57.121024,30.006891 58.160081,30.45 58.5,31 59.282182,32.265597 57.958372,32.265597 56,31 z M 42.5,30 c 0.339919,-0.55 1.828976,-0.993109 3.309017,-0.984687 C 47.913783,29.02729 48.173233,29.241799 47,30 c -1.975857,1.276897 -5.289166,1.276897 -4.5,0 z M 64.589845,29.099277 C 63.411687,27.797427 63.219171,26.982579 63.978833,26.513082 65.229817,25.739931 70,28.520655 70,30.023053 c 0,1.682143 -3.609606,1.065808 -5.410155,-0.923776 z M 32.747476,26.414142 C 31.670849,25.337516 38.037395,21 40.69428,21 c 2.598256,0 2.880785,0.868674 1.05572,3.245962 -1.360419,1.772051 -7.838471,3.332234 -9.002524,2.16818 z M 68.505548,22.006131 C 67.50701,20.902759 67.154669,20 67.722568,20 c 1.258249,0 3.752402,2.858364 3.080469,3.530297 -0.265081,0.26508 -1.298951,-0.420794 -2.297489,-1.524166 z M 61,19 c 1.970116,-1.273187 4.286873,-1.273187 3.5,0 -0.339919,0.55 -1.603976,0.993109 -2.809017,0.984687 C 59.909749,19.972238 59.780524,19.788086 61,19 z M 46.28852,16.655606 C 42.128112,13.863062 42.187601,13 46.540493,13 c 1.954505,0 4.754234,-0.889021 6.25,-1.984614 C 56.012176,8.6556225 60,9.2647586 60,12.116631 60,13.152484 60.45,14 61,14 c 0.55,0 1,0.475517 1,1.056704 0,0.592291 -0.976774,0.372545 -2.222506,-0.5 -3.785159,-2.651228 -10.859138,-1.238348 -8.019135,1.601655 3.375307,3.375307 -0.638424,3.740183 -5.469839,0.497247 z"
     style="fill:#7c8182" />
  <path
     d="m 54,94.200888 c 0,-0.439511 1.6875,-1.449766 3.75,-2.245012 2.0625,-0.795245 4.0875,-1.598145 4.5,-1.784221 2.142252,-0.966359 0.338118,1.640435 -2.154292,3.112737 C 57.036521,95.091499 54,95.548043 54,94.200888 z M 36.932315,88.049508 C 33.664948,84.614792 32.642667,84.120217 29.10233,84.261396 23.799231,84.47287 21.862101,82.132927 22.67703,76.5 c 0.871192,-6.021832 2.028637,-6.305183 3.600461,-0.88142 1.248366,4.307636 1.864143,5.031866 5.238669,6.161331 6.369321,2.131832 7.880176,-2.714496 3.028722,-9.715146 -1.487815,-2.146918 -2.556565,-4.873647 -2.375,-6.059397 C 32.533312,63.631906 40,73.83497 40,76.705051 c 0,0.784537 0.440544,2.249596 0.978987,3.255685 0.711189,1.328869 0.574416,2.165017 -0.5,3.056704 -2.07556,1.722561 -1.841429,3.967856 0.695327,6.668109 C 42.584576,91.186704 42.881566,92 42.019478,92 41.288445,92 38.999222,90.222279 36.932315,88.049508 z m 31.51383,-5.324593 C 72.533368,74.933016 72.77639,73.012599 69.993869,70.494452 67.20233,67.968144 68.261091,67.450443 71.865189,69.579436 75.239023,71.57241 78,70.382987 78,66.936572 78,65.936376 78.45,64.839919 79,64.5 c 0.55,-0.339919 1,0.281966 1,1.381966 0,1.1 -0.487685,2.301406 -1.083745,2.669791 -0.626981,0.387496 -0.943082,2.835812 -0.75,5.809017 0.3334,5.133911 0.329503,5.141294 -3.767904,7.139226 -2.255907,1.1 -5.317642,3.35 -6.803856,5 -2.512854,2.789781 -2.453177,2.52525 0.85165,-3.775085 z M 67.771758,60.29746 c -0.334069,-2.468622 -0.0098,-5.769328 0.785871,-8 0.745022,-2.088603 1.374337,-5.25996 1.398478,-7.04746 0.05287,-3.914841 1.567806,-4.283019 2.49084,-0.605355 0.498428,1.985892 0.948882,2.359526 1.808408,1.5 C 74.88491,45.51509 75.76,45 76.2,45 c 1.390185,0 0.864694,5.70142 -0.640639,6.950735 -0.792352,0.657593 -1.579852,2.400193 -1.75,3.872445 C 73.639212,57.295431 72.893515,58.5 72.152256,58.5 c -0.741259,0 -1.902153,1.35 -2.579764,3 -1.232021,3 -1.232021,3 -1.800734,-1.20254 z M 25.451054,56.115676 c -0.212503,-0.211379 -0.131398,-4.598879 0.180235,-9.75 0.452308,-7.476414 0.294492,-9.362587 -0.782342,-9.350363 C 21.784922,37.050095 18,42.093052 18,46.140719 18,52.410974 15.10105,53.236772 14.983509,47 14.957596,45.625 14.275705,43.626492 13.468197,42.55887 12.660688,41.491249 12,39.942741 12,39.117741 c 0,-1.132557 0.358807,-1.024497 1.464746,0.441129 1.745986,2.313838 6.030551,-1.730096 7.158845,-6.756787 0.333067,-1.483854 1.891513,-3.958854 3.463215,-5.5 4.300199,-4.216598 3.484582,-4.920554 -1.316323,-1.136112 -4.229518,3.334029 -4.229518,3.334029 -1.25,-0.415942 1.638734,-2.062483 3.507491,-3.749983 4.152792,-3.75 C 26.318576,22.000013 28.183536,20.875 29.817631,19.5 34.38972,15.65284 35.794276,16.539058 31.666667,20.666667 29.65,22.683333 28,25.137159 28,26.119614 28,27.102068 27.476902,29.05397 26.837559,30.457173 25.396574,33.619792 26.161409,34.519168 29,33 c 2.557638,-1.368806 3.765676,-0.627509 2.149968,1.3193 -1.946997,2.345988 -2.981005,13.205669 -1.50986,15.857319 2.61437,4.712241 -0.699349,9.410286 -4.189054,5.939057 z m 56.087935,-6.91002 C 81.242545,48.909212 81,48.0388 81,47.271408 81,46.504016 79.879445,43.50749 78.509878,40.612463 74.395469,31.915317 74.0616,27.678421 77.802462,31.635148 c 2.16487,2.289793 2.833878,3.816384 2.481137,5.661631 -0.367172,1.920739 0.138269,2.933533 2.10813,4.224236 1.425105,0.933764 2.383581,2.033525 2.129947,2.443912 -0.253633,0.410388 0.650231,0.533705 2.008586,0.274039 C 88.875644,43.790618 90.079208,42 88.035184,42 c -0.530649,0 -1.482727,-0.967725 -2.11573,-2.150501 -1.188243,-2.220252 4.070616,0.707382 5.539295,3.083755 0.900242,1.456622 -8.678664,7.513498 -9.91976,6.272402 z M 12.608704,34.577319 c 0.300263,-0.782475 1.27341,-1.70184 2.162548,-2.043035 1.328118,-0.509646 1.286661,-0.255759 -0.232306,1.422682 -2.178202,2.406885 -2.677359,2.567307 -1.930242,0.620353 z M 42.5,30 c 0.339919,-0.55 1.518034,-1 2.618034,-1 1.1,0 1.721885,0.45 1.381966,1 -0.339919,0.55 -1.518034,1 -2.618034,1 -1.1,0 -1.721885,-0.45 -1.381966,-1 z M 65.138236,29.384271 C 61.787682,27.037451 63.998796,25.113966 67.448653,27.3744 70.174733,29.160596 70.821007,31 68.722506,31 68.019885,31 66.406963,30.272922 65.138236,29.384271 z M 33,26.19758 C 33,24.467327 38.093246,21 40.634859,21 c 2.831043,0 3.013009,1.103712 0.549524,3.333136 C 38.965435,26.341256 33,27.700213 33,26.19758 z M 68.505548,22.006131 C 67.50701,20.902759 67.154669,20 67.722568,20 c 1.258249,0 3.752402,2.858364 3.080469,3.530297 -0.265081,0.26508 -1.298951,-0.420794 -2.297489,-1.524166 z M 61.5,19 c 0.339919,-0.55 1.378976,-0.993109 2.309017,-0.984687 C 65.266292,18.028509 65.292687,18.164601 64,19 c -1.958372,1.265597 -3.282182,1.265597 -2.5,0 z M 46.28852,16.655606 C 42.128112,13.863062 42.187601,13 46.540493,13 c 1.954505,0 4.754234,-0.889021 6.25,-1.984614 C 56.012176,8.6556225 60,9.2647586 60,12.116631 60,13.152484 60.45,14 61,14 c 0.55,0 1,0.475517 1,1.056704 0,0.592291 -0.976774,0.372545 -2.222506,-0.5 -3.785159,-2.651228 -10.859138,-1.238348 -8.019135,1.601655 3.375307,3.375307 -0.638424,3.740183 -5.469839,0.497247 z"
     style="fill:#7b7d82" />
  <path
     d="M 54,94.520324 C 54,94.018691 61.521315,90 62.460162,90 c 1.726498,0 0.03874,1.868531 -2.994089,3.314788 C 55.935668,94.99832 54,95.42523 54,94.520324 z M 35.882938,87 c -3.389929,-3.423978 -3.66356,-4 -1.900142,-4 3.371678,0 4.578201,-4.07552 2.364563,-7.987272 -4.055538,-7.1666 -4.471408,-8.12595 -4.165306,-9.608744 C 32.544639,63.647569 40,74.424506 40,76.705051 c 0,0.784537 0.440544,2.249596 0.978987,3.255685 0.711189,1.328869 0.574416,2.165017 -0.5,3.056704 -1.93933,1.6095 -1.874152,3.888426 0.176001,6.153819 C 44.014015,92.882943 39.816541,90.973113 35.882938,87 z M 68.446145,82.724915 C 72.614344,74.778642 72.752525,73.448863 69.75,70.177274 67.425608,67.644587 67.626911,67.624365 72.220386,69.929109 75.353402,71.501078 78,70.130737 78,66.936572 78,65.936376 78.45,64.839919 79,64.5 c 0.55,-0.339919 1,0.281966 1,1.381966 0,1.1 -0.487685,2.301406 -1.083745,2.669791 -0.626981,0.387496 -0.943082,2.835812 -0.75,5.809017 0.3334,5.133911 0.329503,5.141294 -3.767904,7.139226 -2.255907,1.1 -5.317642,3.35 -6.803856,5 -2.512854,2.789781 -2.453177,2.52525 0.85165,-3.775085 z m -42.059139,1.518048 c -2.688463,-0.440433 -4.128792,-3.812429 -3.430959,-8.032315 0.732177,-4.427564 2.312429,-4.307451 3.597701,0.273457 0.579562,2.065647 1.817062,4.313869 2.75,4.996051 2.827253,2.067337 1.354345,3.462511 -2.916742,2.762807 z M 67.702907,59.556656 c -0.350948,-2.162639 -0.0093,-4.972504 0.85665,-7.044954 C 69.351801,50.615596 70,47.474784 70,45.532119 70,41.458427 71.487421,40.821587 72.410644,44.5 73.014369,46.905431 75,48.055697 75,46 c 0,-0.55 0.45,-1 1,-1 1.569772,0 1.168693,5.615108 -0.5,7 -0.825,0.684689 -1.5,2.239789 -1.5,3.455778 0,2.894356 -0.992455,3.795373 -2.657991,2.413101 -1.041043,-0.863989 -1.345443,-0.693844 -1.357322,0.758676 -0.03212,3.92728 -1.685962,4.600697 -2.28178,0.929101 z M 25.418712,56.083333 C 24.432299,55.101739 25.131926,53.998846 26.75,53.984687 28.100823,53.972867 28.193357,53.775032 27.155673,53.117373 26.209372,52.51763 25.834577,50.005495 25.889809,44.632685 25.960555,37.750849 25.779787,37 24.052231,37 c -2.485716,0 -6.032592,5.013622 -6.122516,8.65437 -0.138149,5.593204 -1.604971,7.295471 -2.452043,2.84563 -0.418792,-2.2 -1.372592,-4.887628 -2.119556,-5.972506 -1.926701,-2.798311 -1.828471,-5.533083 0.10663,-2.968624 1.745986,2.313838 6.030551,-1.730096 7.158845,-6.756787 0.333067,-1.483854 1.891513,-3.958854 3.463215,-5.5 4.300199,-4.216598 3.484582,-4.920554 -1.316323,-1.136112 -4.229518,3.334029 -4.229518,3.334029 -1.25,-0.415942 1.638734,-2.062483 3.688576,-3.749983 4.555203,-3.75 C 26.942313,22.000013 28.708255,20.875 30,19.5 31.291745,18.125 33.020187,17 33.840981,17 c 0.927807,0 0.10528,1.387072 -2.174314,3.666667 C 29.65,22.683333 28,25.137159 28,26.119614 28,27.102068 27.476902,29.05397 26.837559,30.457173 25.396574,33.619792 26.161409,34.519168 29,33 c 2.632178,-1.408699 3.750027,-0.608654 2.035718,1.456962 -2.021191,2.435386 -2.947142,13.487783 -1.381349,16.488152 2.359381,4.521043 -0.892131,8.46541 -4.235657,5.138219 z M 81.554613,49.22128 C 81.249576,48.916243 81,48.0388 81,47.271408 81,46.504016 79.879445,43.50749 78.509878,40.612463 74.395469,31.915317 74.0616,27.678421 77.802462,31.635148 c 2.16487,2.289793 2.833878,3.816384 2.481137,5.661631 -0.367172,1.920739 0.138269,2.933533 2.10813,4.224236 1.425105,0.933764 2.393728,2.017106 2.152498,2.407425 -0.241231,0.39032 0.896783,0.513679 2.52892,0.274132 2.967522,-0.43554 2.967522,-0.43554 0.447188,-2.771307 -3.473104,-3.218763 -3.164521,-4.026154 0.532614,-1.393562 1.679123,1.195641 2.916623,2.877688 2.75,3.737883 -0.323412,1.669634 -8.317337,6.376693 -9.248336,5.445694 z M 12.608704,34.577319 c 0.300263,-0.782475 1.27341,-1.70184 2.162548,-2.043035 1.328118,-0.509646 1.286661,-0.255759 -0.232306,1.422682 -2.178202,2.406885 -2.677359,2.567307 -1.930242,0.620353 z M 42.5,30 c 0.339919,-0.55 1.518034,-1 2.618034,-1 1.1,0 1.721885,0.45 1.381966,1 -0.339919,0.55 -1.518034,1 -2.618034,1 -1.1,0 -1.721885,-0.45 -1.381966,-1 z M 65.138236,29.384271 C 61.787682,27.037451 63.998796,25.113966 67.448653,27.3744 70.174733,29.160596 70.821007,31 68.722506,31 68.019885,31 66.406963,30.272922 65.138236,29.384271 z M 33,26.19758 C 33,24.467327 38.093246,21 40.634859,21 c 2.831043,0 3.013009,1.103712 0.549524,3.333136 C 38.965435,26.341256 33,27.700213 33,26.19758 z m 35.979944,-3.721746 c -0.69572,-0.838291 -1.012279,-1.776832 -0.703465,-2.085646 0.308814,-0.308815 1.063772,0.37706 1.677684,1.524166 1.309846,2.447469 0.823595,2.727714 -0.974219,0.56148 z M 61.5,19 c 0.339919,-0.55 1.378976,-0.993109 2.309017,-0.984687 C 65.266292,18.028509 65.292687,18.164601 64,19 c -1.958372,1.265597 -3.282182,1.265597 -2.5,0 z M 46.28852,16.655606 C 42.128112,13.863062 42.187601,13 46.540493,13 48.563806,13 51.292774,12.104086 52.908817,10.909293 55.899374,8.6982788 60,9.7572395 60,12.740547 60,13.433246 60.45,14 61,14 c 0.55,0 1,0.519744 1,1.154988 0,0.691042 -0.734585,0.490197 -1.828741,-0.5 -3.167473,-2.866524 -11.32505,-1.408779 -8.4129,1.503371 3.375307,3.375307 -0.638424,3.740183 -5.469839,0.497247 z"
     style="fill:#7a807d" />
  <path
     d="m 54,94.520324 c 0,-0.810738 8.160326,-4.693331 8.709685,-4.143972 0.645727,0.645726 -5.763124,4.614836 -7.459685,4.61991 C 54.5625,94.998318 54,94.784146 54,94.520324 z M 37.634859,88.92742 C 36.185686,87.787501 35,86.245497 35,85.500744 35,84.755991 34.2125,83.940853 33.25,83.689326 31.912781,83.339874 32.022419,83.204641 33.714816,83.116001 38.258073,82.878048 38.926879,76.862534 34.90045,72.451925 33.282468,70.679565 30.776684,62.649519 32.263017,64 33.963516,65.545071 40,75.427412 40,76.666231 c 0,0.805888 0.440544,2.288416 0.978987,3.294505 0.711189,1.328869 0.574416,2.165017 -0.5,3.056704 -1.93933,1.6095 -1.874152,3.888426 0.176001,6.153819 2.244605,2.480261 0.236931,2.318165 -3.020129,-0.243839 z m 29.823189,-4.059495 c 0.808636,-1.997641 2.39132,-5.193176 3.517075,-7.101188 2.046827,-3.469114 2.046827,-3.469114 0.03585,-6.025655 C 68.273599,68.261074 68.48121,67.795277 71.89612,69.755166 75.200002,71.651333 78,70.331303 78,66.877555 78,65.8449 78.45,65 79,65 c 1.33444,0 1.281889,2.707749 -0.06875,3.542491 -0.602192,0.372175 -0.939129,2.90808 -0.771823,5.809017 C 78.456355,79.5 78.456355,79.5 74.091515,81.605447 c -2.400661,1.157996 -5.206086,3.182996 -6.234277,4.5 -1.868661,2.393559 -1.868827,2.393045 -0.39919,-1.237522 z M 23.713827,82.001818 c -1.541411,-2.200673 -0.909528,-9.586574 0.803136,-9.387626 0.540671,0.06281 1.457224,1.804267 2.036785,3.869913 0.579562,2.065647 1.817062,4.313869 2.75,4.996051 C 31.75846,83.275085 31.399707,84 28.056704,84 26.247919,84 24.573931,83.229789 23.713827,82.001818 z M 67.683406,59.436485 c -0.331811,-2.044713 -0.11235,-4.634996 0.487692,-5.756184 0.600041,-1.121188 1.407195,-4.320424 1.793674,-7.109412 C 70.648978,41.633387 70.697489,41.572337 71.80898,44.25 72.910661,46.904029 75,48.049852 75,46 c 0,-0.55 0.45,-1 1,-1 1.582237,0 1.162713,5.162722 -0.575611,7.083549 -0.866586,0.957566 -1.705201,2.568 -1.86359,3.578741 -0.168615,1.075994 -0.966258,1.715917 -1.924389,1.543873 -1.012357,-0.18178 -1.64225,0.390252 -1.651723,1.5 -0.03355,3.929829 -1.696435,4.457554 -2.301281,0.730322 z M 25.416667,56.083333 c -0.975375,-0.975374 -0.288609,-2.08911 1.333333,-2.16228 1.045438,-0.04716 1.246741,-0.282017 0.5,-0.583334 C 26.397738,52.993824 26,50.314327 26,44.916667 26,34.363416 18.190963,35.07724 17.929715,45.65437 17.791707,51.241884 16.324016,52.950899 15.485908,48.5 15.071645,46.3 14.117845,43.284847 13.366352,41.79966 11.789598,38.683499 11.560234,36.64055 13.080099,39.25 c 0.560605,0.9625 1.565213,1.75 2.232463,1.75 1.215567,0 1.896067,-1.052605 5.495177,-8.5 1.063197,-2.2 2.891399,-4.857244 4.062673,-5.904988 2.961182,-2.648876 2.671384,-4.18003 -0.409123,-2.161604 -2.47908,1.624355 -2.508663,1.615312 -1.259453,-0.384991 C 23.905428,22.921788 25.095387,22 25.846191,22 c 0.750803,0 2.702084,-1.125 4.336178,-2.5 4.419887,-3.71909 5.421944,-3.02311 1.484549,1.031096 -1.886146,1.942103 -3.696975,4.754603 -4.024064,6.25 -0.327089,1.495397 -0.902873,3.807306 -1.27952,5.137574 -0.563394,1.989835 -0.39036,2.300114 0.975926,1.75 0.913407,-0.367768 2.38809,-0.961904 3.277074,-1.3203 1.396334,-0.562937 1.452059,-0.344681 0.409415,1.603518 -2.205118,4.120299 -3.043723,13.786578 -1.459522,16.823333 2.329019,4.464494 -0.8836,8.574073 -4.14956,5.308112 z M 81.554613,49.22128 C 81.249576,48.916243 81,48.0388 81,47.271408 81,46.504016 79.879445,43.50749 78.509878,40.612463 74.395469,31.915317 74.0616,27.678421 77.802462,31.635148 c 2.173169,2.298571 2.834427,3.813515 2.478124,5.677391 -0.351688,1.839739 0.09506,2.90511 1.616717,3.855399 C 83.053786,41.890173 84,43.362848 84,44.440547 c 0,1.524019 0.266667,1.692786 1.2,0.759453 0.66,-0.66 2.117902,-1.2 3.239782,-1.2 1.869349,0 1.810861,-0.212267 -0.7,-2.540469 -3.642981,-3.377962 -3.484421,-4.069942 0.2927,-1.277395 1.667866,1.233107 2.905366,2.897983 2.75,3.699726 -0.308906,1.594072 -8.331305,6.235982 -9.227869,5.339418 z M 42.5,30 c 0.339919,-0.55 1.518034,-1 2.618034,-1 1.1,0 1.721885,0.45 1.381966,1 -0.339919,0.55 -1.518034,1 -2.618034,1 -1.1,0 -1.721885,-0.45 -1.381966,-1 z M 65.75,29.9199 C 64.011329,28.907218 63.290064,26 64.777494,26 66.074675,26 70,29.049088 70,30.056704 c 0,1.221712 -2.029745,1.156377 -4.25,-0.136803 z M 33,26.234443 c 0,-1.662299 3.564139,-4.197271 6.815617,-4.847566 3.547091,-0.709419 4.137506,0.462387 1.434383,2.846842 C 39.17088,26.067732 33,27.564245 33,26.234443 z M 61.5,19 c 0.339919,-0.55 1.378976,-0.993109 2.309017,-0.984687 C 65.266292,18.028509 65.292687,18.164601 64,19 c -1.958372,1.265597 -3.282182,1.265597 -2.5,0 z M 46.287293,16.539153 c -3.212706,-2.289572 -3.212706,-2.289572 0.192929,-2.842231 1.8731,-0.303962 4.722064,-1.525935 6.331031,-2.715497 C 55.893553,8.7025828 60,9.7074505 60,12.740547 60,13.433246 60.45,14 61,14 c 0.55,0 1,0.519744 1,1.154988 0,0.691042 -0.734585,0.490197 -1.828741,-0.5 C 58.286693,12.949479 55.351462,12.544165 52.581787,13.606989 50.854064,14.269979 50.385957,17 52,17 c 0.55,0 1,0.45 1,1 0,1.678728 -3.321592,0.955869 -6.712707,-1.460847 z"
     style="fill:#767778" />
  <path
     d="m 57.86481,92.460858 c 4.268865,-1.853361 5.033505,-1.851183 2.57632,0.0073 C 59.373508,93.275705 57.6,93.933091 56.5,93.929055 c -1.384651,-0.0051 -0.964734,-0.456807 1.36481,-1.468197 z M 37.646023,88.547749 c -2.993536,-2.774315 -3.221315,-4.203049 -1.11422,-6.988879 2.136578,-2.824807 1.83556,-4.661364 -1.618786,-9.876475 -1.697841,-2.563272 -2.923045,-5.152311 -2.722676,-5.753419 0.20037,-0.601108 2.005777,1.306464 4.012017,4.23905 C 39.832446,75.474244 42.187723,83 40.21828,83 c -2.009547,0 -2.058026,2.934012 -0.08982,5.436176 2.563648,3.259151 0.990167,3.329871 -2.482433,0.111573 z M 24.2,82.8 c -1.313415,-1.313415 -1.417774,-4.899359 -0.256099,-8.8 0.699049,-2.347248 0.815599,-2.247439 1.907497,1.633512 0.639626,2.273431 1.834726,4.691031 2.655779,5.372444 C 29.32823,81.68737 30,82.639789 30,83.122445 30,84.42903 25.583499,84.183499 24.2,82.8 z M 69,82.893253 C 69,80.282354 71.188579,77.925077 73.060903,78.51933 74.416702,78.949644 75,78.663291 75,77.567388 75,76.705324 74.55,76 74,76 73.45,76 73,75.394744 73,74.654988 73,73.915231 72.1,72.495486 71,71.5 c -2.942169,-2.662627 -2.437317,-3.989154 0.606873,-1.594593 2.035269,1.600942 3.033925,1.822016 4.554492,1.008233 1.829539,-0.97914 1.929157,-0.725654 1.643126,4.181072 C 77.507052,80.197149 77.401575,80.359801 73.25,82.118053 70.852599,83.133386 69,83.471301 69,82.893253 z M 68.375367,58 C 69.532562,47.244746 70.311293,43 71.127229,43 71.607253,43 72,43.873442 72,44.940983 c 0,2.251249 1.571614,3.561178 2.489919,2.075329 1.236833,-2.001238 2.155919,-0.963331 1.72811,1.951521 -0.239572,1.632309 -1.061635,3.487409 -1.826807,4.122445 C 73.62605,53.725314 73,54.850666 73,55.59106 c 0,0.785753 -0.624457,1.106544 -1.5,0.770566 -0.999141,-0.383406 -1.505113,0.04446 -1.515313,1.281385 C 69.976265,58.664355 69.501784,60.175 68.930285,61 68.168328,62.09994 68.020327,61.29982 68.375367,58 z M 29,54.608707 C 29,53.778577 28.281723,52.697412 27.40383,52.206118 26.117156,51.48606 25.894063,50.034859 26.253269,44.721834 27.108049,32.078777 19.790887,34.380512 17.421544,47.5 c -0.722389,4 -0.722389,4 -1.448259,1 -0.399228,-1.65 -1.054683,-3.7875 -1.456566,-4.75 -0.485625,-1.16306 -0.27557,-1.757259 0.626292,-1.771642 1.316572,-0.021 2.516344,-1.925059 6.715747,-10.658019 3.511444,-7.302301 7.595852,-8.04596 4.582661,-0.834377 -1.853425,4.435869 -1.384167,5.287773 1.71642,3.116037 2.747481,-1.924411 4.506191,-2.107033 3.017557,-0.313339 -2.221443,2.676675 -3.295506,14.179629 -1.684097,18.036272 0.942291,2.255222 1.126179,3.793446 0.499769,4.180588 C 29.44598,55.842403 29,55.438837 29,54.608707 z m 52.338078,-7.910493 c -0.615388,-1.759018 -2.327523,-6.051395 -3.804746,-9.538616 -1.477224,-3.487222 -2.387806,-6.637222 -2.023517,-7 C 76.651672,29.022476 80,34.090397 80,36.955796 c 0,1.503826 0.91587,3.56308 2.035267,4.57612 1.119397,1.013041 1.80852,2.432785 1.531385,3.154988 -0.587303,1.530487 0.603811,1.742633 1.991707,0.354737 0.580858,-0.580858 1.534883,-0.602048 2.421975,-0.0538 1.217558,0.752492 1.132094,1.02322 -0.508359,1.610359 -1.084586,0.388187 -2.656658,1.289091 -3.493493,2.002009 -1.299237,1.106848 -1.684979,0.828982 -2.640404,-1.902 z M 43,30 c 1.958372,-1.265597 3.282182,-1.265597 2.5,0 -0.339919,0.55 -1.378976,0.993109 -2.309017,0.984687 C 41.733708,30.971491 41.707313,30.835399 43,30 z M 65.75,29.9199 C 63.970152,28.883235 63.304499,26 64.845012,26 c 0.464757,0 1.589757,0.822933 2.5,1.828741 2.7379,3.025344 1.89845,4.125915 -1.595012,2.09116 z M 34.53125,24.024306 C 36.788985,21.76657 43,20.148674 43,21.818296 43,23.605211 38.736535,26 35.555272,26 32.567857,26 32.563657,25.991898 34.53125,24.024306 z M 47.154574,16.614041 C 43.920589,14.228083 43.920589,14.228083 47.460295,13.814842 49.801152,13.54156 51,13.813922 51,14.619013 c 0,0.669577 0.273145,1.929216 0.606989,2.7992 0.861176,2.244188 -0.70369,1.96155 -4.452415,-0.804172 z m 6.475358,-5.757614 C 54.913825,9.4377407 55.561149,9.3334954 57.103922,10.296973 59.853658,12.014212 59.452306,12.6 55.52601,12.6 c -3.240342,0 -3.367866,-0.117266 -1.896078,-1.743573 z"
     style="fill:#666769" />
  <path
     d="M 37.938029,88.718197 C 35.555396,86.859958 35.07554,84.617178 36.611243,82.516979 38.700019,79.660408 38.29021,75.781917 35.5,72 34.125,70.136292 33.019888,67.911367 33.044196,67.05572 33.068504,66.200074 33.979254,67.1875 35.068086,69.25 36.156917,71.3125 37.487029,73 38.02389,73 38.56075,73 39,73.929584 39,75.065741 c 0,1.136158 0.463379,2.931573 1.02973,3.98981 0.767153,1.433439 0.621533,2.547056 -0.571072,4.367201 -1.245955,1.901568 -1.35558,2.901333 -0.494546,4.51019 1.268542,2.370294 1.136157,2.471607 -1.026083,0.785255 z M 24.479167,82.33631 c -1.149578,-1.149578 -1.48067,-2.578794 -1.071429,-4.625 C 23.733482,76.082589 24,74.329692 24,73.815983 24,73.302274 24.45,73.160081 25,73.5 c 0.55,0.339919 1,1.684333 1,2.987588 0,1.303255 0.675,3.044555 1.5,3.869555 0.825,0.825 1.5,1.982143 1.5,2.571428 0,1.62734 -2.64816,1.280412 -4.520833,-0.592261 z M 69,82.2 c 0,-1.395305 2.335378,-3.2 4.140983,-3.2 2.712151,0 3.014225,-1.532967 0.845392,-4.290192 -2.531094,-3.217764 -2.539601,-3.189995 1.015905,-3.316289 5.300749,-0.188286 4.484324,7.794501 -1.022516,9.997901 C 69.375209,83.233798 69,83.294722 69,82.2 z M 68.032646,57.41639 c 0.04423,-2.596279 3.893498,-13.406102 3.934708,-11.049759 0.02393,1.368544 0.566321,1.727072 2.032646,1.34362 3.330575,-0.870965 2.398897,2.524886 -2,7.289749 -3.070831,3.326309 -3.992417,3.887617 -3.967354,2.41639 z M 27,50.440983 c 0,-0.857459 0.45,-1.280902 1,-0.940983 0.55,0.339919 1,1.041476 1,1.559017 C 29,51.576558 28.55,52 28,52 27.45,52 27,51.298442 27,50.440983 z M 15.680671,46.432422 C 15.310434,44.158321 15.453626,42.359432 16.020225,42.166667 16.559101,41.983333 17,41.390808 17,40.849945 17,40.309081 18.125,38.391605 19.5,36.588887 20.875,34.786169 22,32.775362 22,32.120426 22,30.190244 25.118031,26 26.554312,26 c 2.384492,0 -1.288823,8.334861 -5.474701,12.422262 -2.326281,2.271552 -3.672788,4.417428 -3.407775,5.430838 0.240971,0.921477 0.03559,2.763587 -0.456408,4.093578 -0.833783,2.253932 -0.938019,2.151088 -1.534757,-1.514256 z M 26,46.559017 c 0,-0.792541 0.45,-1.719098 1,-2.059017 0.55,-0.339919 1,0.308524 1,1.440983 C 28,47.073442 27.55,48 27,48 26.45,48 26,47.351558 26,46.559017 z M 80.710251,44 C 80.370329,42.700137 80.679569,42 81.59362,42 82.367129,42 83,42.9 83,44 c 0,1.1 -0.397516,2 -0.883369,2 -0.485852,0 -1.118724,-0.9 -1.40638,-2 z M 27.008656,43 c -0.987348,-3.896271 -0.473059,-8.216275 1.076884,-9.04578 2.682181,-1.435459 2.831064,-1.232866 1.687134,2.29578 -1.479846,4.564837 -2.615166,7.337398 -2.764018,6.75 z M 77.448973,37.532119 C 75.802368,33.591237 75.581822,31 76.893011,31 c 1.155142,0 2.238533,2.660516 2.748675,6.75 0.526937,4.224126 -0.374134,4.13459 -2.192713,-0.217881 z m -11.55731,-8.473846 c -1.849898,-1.540562 -2.022986,-1.999271 -0.764108,-2.025004 1.713034,-0.03502 4.514174,2.658335 3.656608,3.515901 -0.275461,0.275461 -1.577086,-0.395443 -2.8925,-1.490897 z M 35.527778,24.104506 C 38.382076,21.361252 42,20.440512 42,22.457363 42,24.061012 38.285102,26 35.212678,26 c -1.432006,0 -1.3892,-0.257499 0.3151,-1.895494 z M 47.46092,16.491709 C 44.5,14.071926 44.5,14.071926 47.182612,14.035963 c 1.8557,-0.02488 2.885654,0.603765 3.341306,2.039398 0.963006,3.034162 0.25757,3.130051 -3.062998,0.416348 z m 5.753981,-5.135181 c 0.72814,-0.72814 2.281135,-1.039573 3.541021,-0.710105 3.3546,0.877248 2.703935,1.843476 -1.299887,1.930313 -2.898763,0.06287 -3.303726,-0.157616 -2.241134,-1.220208 z"
     style="fill:#5d6263" />
  <path
     d="m 36.973087,87.467572 c -1.029278,-1.240204 -1.0277,-2.272064 0.0083,-5.411101 0.734504,-2.22557 0.976619,-5.087748 0.568074,-6.715522 -0.973475,-3.878631 0.526182,-2.161871 2.093171,2.396198 1.085683,3.158041 1.045346,3.950179 -0.275471,5.409665 -0.950255,1.050019 -1.293663,2.509323 -0.889882,3.781524 0.780033,2.457667 0.246675,2.648873 -1.504168,0.539236 z M 24.062911,81.575803 C 23.325964,80.687836 23.132889,78.80856 23.550116,76.584553 24.276275,72.71379 26,72.645567 26,76.487588 c 0,1.303255 0.675,3.044555 1.5,3.869555 0.825,0.825 1.5,1.757143 1.5,2.071428 0,1.174086 -3.799629,0.517788 -4.937089,-0.852768 z M 69,82.306989 C 69,80.818192 71.276725,79 73.140983,79 c 2.505641,0 3.288044,-1.854046 1.609083,-3.813013 -2.666611,-3.11133 -2.653089,-3.748676 0.07711,-3.634341 4.190207,0.175477 4.579472,7.744191 0.474664,9.229176 C 73.760826,81.339309 71.7125,82.114607 70.75,82.504706 69.7875,82.894805 69,82.805833 69,82.306989 z M 33.979944,69.475834 c -0.69572,-0.838291 -1.012279,-1.776832 -0.703465,-2.085646 0.308814,-0.308815 1.063772,0.37706 1.677684,1.524166 1.309846,2.447469 0.823595,2.727714 -0.974219,0.56148 z M 68.109307,57 C 68.17076,54.982977 71.82408,45.162711 71.922496,46.75 71.965123,47.4375 72.9,48 74,48 c 1.1,0 2,0.465832 2,1.035183 C 76,50.641208 72.890827,55 71.745233,55 c -0.563611,0 -1.622545,0.7875 -2.353187,1.75 -1.061551,1.398419 -1.319258,1.448645 -1.282739,0.25 z M 15.757729,46.512971 C 15.207805,43.636232 16.043766,41.504298 19.75,36.331555 20.9875,34.604392 22,32.551667 22,31.769944 22,30.98822 23.125,29.291745 24.5,28 26.417511,26.198592 27,26.013025 27,27.203562 c 0,3.048119 -2.901521,8.352156 -6.425755,11.746405 -2.410286,2.321386 -3.397291,4.032207 -3.017183,5.229821 0.310697,0.978919 0.150654,2.520077 -0.355652,3.424796 -0.767031,1.370607 -1.0078,1.188554 -1.443681,-1.091613 z M 81.53122,44.706872 c -0.428064,-0.986221 -0.497705,-2.073721 -0.154759,-2.416667 1.015492,-1.015491 1.834088,0.410947 1.366695,2.381526 -0.41435,1.746944 -0.46826,1.748507 -1.211936,0.03514 z M 26.835815,39.719357 c -0.331222,-2.837163 0.03607,-4.193961 1.487108,-5.493537 1.873736,-1.678145 1.90612,-1.629135 1.172291,1.77418 -1.476577,6.848002 -2.179394,7.830941 -2.659399,3.719357 z m 51.147417,-1.26346 C 75.903057,32.984623 75.604296,30.352475 77.250457,32 c 1.382627,1.383772 3.212148,9 2.161922,9 -0.254035,0 -0.897151,-1.144846 -1.429147,-2.544103 z M 65,28.5 C 63.987531,27.280049 64.03516,27 65.255111,27 c 0.825,0 2.0602,0.675 2.744889,1.5 1.012469,1.219951 0.96484,1.5 -0.255111,1.5 -0.825,0 -2.0602,-0.675 -2.744889,-1.5 z M 35.284207,24.618905 c 0.451264,-1.389143 5.660547,-4.007484 6.434074,-3.233957 0.311696,0.311696 0.03885,1.202762 -0.60632,1.980147 -1.475067,1.777347 -6.337672,2.823511 -5.827754,1.25381 z M 47.75,16.919901 C 45.445078,15.577407 45.517127,14 47.883369,14 c 1.042364,0 2.116915,0.893085 2.40638,2 0.582358,2.22694 0.04097,2.423032 -2.539749,0.919901 z m 5.953625,-6.023526 c 0.790945,-0.790945 1.626739,-0.79956 2.95,-0.03041 1.618622,0.940833 1.482488,1.076967 -1.103625,1.103624 -2.151326,0.02218 -2.651208,-0.268383 -1.846375,-1.073216 z"
     style="fill:#5b5c61" />
  <path
     d="m 37.010777,87.512986 c -2.15188,-2.592857 0.845715,-10.056494 3.123953,-7.778256 0.95735,0.95735 0.832458,1.644046 -0.583589,3.20876 -1.055315,1.166109 -1.581389,2.832838 -1.269991,4.023628 0.633308,2.421771 0.377657,2.531622 -1.270373,0.545868 z M 24.155006,81.686771 c -0.630004,-0.759109 -0.832159,-2.901391 -0.479095,-5.077072 0.620821,-3.825667 2.276455,-3.243693 2.308776,0.81156 0.0084,1.056693 0.760057,2.744193 1.670301,3.75 C 29.206737,82.885923 29.183185,83 27.277432,83 26.159534,83 24.754442,82.409047 24.155006,81.686771 z M 69,82.122445 c 0,-1.371938 2.808024,-3.359127 3.842888,-2.719545 2.149817,1.32866 3.450357,-2.306407 1.752349,-4.897894 C 73.15915,72.31326 73.144357,72 74.476947,72 c 0.837679,0 1.860553,0 2.273053,0 2.799973,0 0.529712,7.588925 -2.75,9.192575 -4.034283,1.972605 -5,2.152203 -5,0.92987 z M 68.030409,57.533433 c -0.17105,-5.436961 4.863145,-10.973212 7.542095,-8.294262 0.844967,0.844966 -2.768322,5.690016 -4.272814,5.729404 -0.66017,0.01728 -1.658986,0.818925 -2.219591,1.781425 -0.560605,0.9625 -1.032966,1.315045 -1.04969,0.783433 z M 15.779099,45.624763 C 15.503134,44.181143 15.638384,43 16.079655,43 c 1.445752,0 2.047149,1.950997 1.114894,3.616843 -0.762463,1.362446 -0.996744,1.198241 -1.41545,-0.99208 z M 81,43.440983 c 0,-0.857459 0.45,-1.280902 1,-0.940983 0.55,0.339919 1,1.041476 1,1.559017 C 83,44.576558 82.55,45 82,45 81.45,45 81,44.298442 81,43.440983 z M 27.175242,38.568724 c 0.178617,-2.152768 0.845161,-4.084877 1.481209,-4.293575 0.830318,-0.27244 0.925481,0.644639 0.337443,3.251924 -1.150762,5.102329 -2.205703,5.706557 -1.818652,1.041651 z M 17,40.394356 c 0,-0.333104 1.125,-1.942631 2.5,-3.576725 C 20.875,35.183536 22,33.059517 22,32.097589 22,31.13566 23.125,29.291745 24.5,28 27.557279,25.127836 27.976589,27.163072 25.385838,32.29966 22.849342,37.328681 17,42.974943 17,40.394356 z m 60.51342,-4.01648 C 75.612448,31.828209 75.574523,30.401996 77.394685,31.912596 78.549296,32.870839 80.239983,40 79.312619,40 79.155441,40 78.345801,38.370044 77.51342,36.377876 z M 65.458881,28.933469 C 64.286253,27.036115 65.996499,26.567928 67.738095,28.309524 69.297037,29.868465 69.299776,30 67.773303,30 66.862905,30 65.821415,29.520061 65.458881,28.933469 z M 35.538122,23.938317 c 0.801199,-1.296366 5.544844,-3.188684 6.243067,-2.490461 0.277097,0.277096 -0.06541,1.189687 -0.761133,2.027978 -1.428127,1.720788 -6.525382,2.150817 -5.481934,0.462483 z M 47.75,16.607954 C 45.485136,14.888678 45.530583,14 47.883369,14 c 1.042364,0 2.116915,0.893085 2.40638,2 0.604676,2.312283 -0.07899,2.475936 -2.539749,0.607954 z"
     style="fill:#565859" />
  <path
     d="m 36.603734,86.295583 c -0.460181,-1.429633 -0.0919,-3.147104 1.047828,-4.886552 1.982354,-3.025455 3.200243,-1.489331 1.537763,1.939581 C 38.61563,84.531875 37.958832,86.175 37.729775,87 37.430846,88.076659 37.113046,87.877853 36.603734,86.295583 z M 24.230582,81.447544 c -1.07261,-1.916649 -0.34006,-7.633239 0.88142,-6.878323 C 25.600401,74.871068 26,76.189919 26,77.5 c 0,1.310081 0.45,2.660081 1,3 1.491618,0.921871 1.207359,2.5 -0.45031,2.5 -0.79767,0 -1.841269,-0.698605 -2.319108,-1.552456 z M 70,81.066422 c 0,-0.513467 1.2375,-1.075967 2.75,-1.25 2.501853,-0.28787 2.730139,-0.654804 2.529902,-4.066422 -0.282466,-4.812607 1.365107,-4.916473 1.924911,-0.121349 0.387149,3.316213 0.141025,3.746728 -2.858476,5 C 70.462172,82.251559 70,82.29811 70,81.066422 z M 69.903802,52.25 c 0.46913,-1.76525 1.512434,-2.864428 2.913517,-3.069551 2.707414,-0.396373 2.899271,1.861071 0.35394,4.164563 -2.789121,2.52412 -4.111497,2.080957 -3.267457,-1.095012 z M 18,39.760743 c 0,-0.797922 0.9,-2.265257 2,-3.260743 1.1,-0.995486 2,-2.590378 2,-3.544204 0,-2.089292 3.562395,-6.720111 4.472501,-5.813882 0.354564,0.353053 0.0097,2.153053 -0.766431,4 C 24.024196,35.144404 18,41.882145 18,39.760743 z m 9.335833,-2.32796 c -0.330769,-0.86197 -0.09165,-2.07697 0.531384,-2.7 C 28.710928,33.889072 29,34.289008 29,36.3 c 0,3.008702 -0.748736,3.518359 -1.664167,1.132783 z M 76.6,33.4 c -0.355892,-0.927441 -0.422077,-1.911256 -0.147077,-2.186256 0.275,-0.275 0.791185,0.258815 1.147077,1.186256 0.355892,0.927441 0.422077,1.911256 0.147077,2.186256 C 77.472077,34.861256 76.955892,34.327441 76.6,33.4 z M 36.243786,23.75 c 0.225748,-0.6875 1.725748,-1.372688 3.333333,-1.522641 2.788155,-0.260073 2.833407,-0.202456 0.981751,1.25 -2.346126,1.840325 -4.882473,2.000579 -4.315084,0.272641 z M 47.666667,16.333333 C 46.452006,15.118673 46.975724,14.053454 48.5,14.638374 c 0.825,0.316582 1.5,0.977459 1.5,1.468615 0,1.048404 -1.377636,1.182041 -2.333333,0.226344 z"
     style="fill:#454749" />
  <path
     d="M 37.476217,83.25 C 39.026182,80.051951 40,79.141027 40,80.889216 c 0,0.489069 -0.922259,1.951569 -2.049463,3.25 C 35.901073,86.5 35.901073,86.5 37.476217,83.25 z M 25.128071,82.079152 C 24.361612,81.605454 24.000655,79.933805 24.224622,77.895135 24.5346,75.073547 24.728396,74.837864 25.371803,76.5 c 0.425806,1.1 1.182128,2.766638 1.680716,3.70364 1.044714,1.963341 -0.05237,3.032523 -1.924448,1.875512 z M 70,52.622445 c 0,-2.215554 2.874917,-4.147528 4.2,-2.822445 0.820316,0.820316 0.776728,1.523115 -0.164826,2.657618 C 72.446064,54.372378 70,54.472293 70,52.622445 z M 20.41125,36.610453 C 21.835062,34.471202 23,32.178447 23,31.515441 c 0,-0.663006 0.951038,-2.06271 2.113418,-3.110453 3.523358,-3.175876 -0.467689,5.379177 -4.242945,9.095012 -3.047974,3 -3.047974,3 -0.459223,-0.889547 z M 36.546168,24.074701 c -0.316365,-0.51189 0.365237,-1.229194 1.514672,-1.594011 2.837805,-0.900684 3.591487,0.09983 1.085495,1.440994 -1.218006,0.651857 -2.254181,0.712834 -2.600167,0.153017 z"
     style="fill:#3c4345" />
  <path
     d="m 37,84.382259 c 0,-0.55 0.660688,-1.873508 1.468197,-2.941129 0.807508,-1.067622 1.468196,-1.49113 1.468196,-0.94113 0,0.55 -0.660688,1.873508 -1.468196,2.94113 C 37.660688,84.508751 37,84.932259 37,84.382259 z M 24.666667,81.333333 c -1.000702,-1.000702 -0.802998,-5.535624 0.213931,-4.907128 0.484329,0.299332 1.096926,1.67589 1.361328,3.059017 0.465411,2.43464 -0.20371,3.21966 -1.575259,1.848111 z M 70.015313,53.25 c 0.03695,-1.809737 1.871385,-3.418464 3.533107,-3.098393 1.722641,0.331804 1.725439,0.431719 0.05874,2.098393 -1.8091,1.809078 -3.618656,2.312873 -3.591851,1 z M 23.031803,32.372445 C 23.014312,31.202289 23.675,29.684689 24.5,29 c 2.047426,-1.699213 2.07033,0.863698 0.0318,3.55887 -1.439397,1.903054 -1.46882,1.899398 -1.5,-0.186425 z M 37.5,23 c 0.339919,-0.55 1.293034,-1 2.118034,-1 0.825,0 1.221885,0.45 0.881966,1 -0.339919,0.55 -1.293034,1 -2.118034,1 -0.825,0 -1.221885,-0.45 -0.881966,-1 z"
     style="fill:#383d42" />
  <path
     d="M 24.374286,80.532989 C 23.321232,77.788775 24.569851,76.76051 25.766368,79.386579 26.513642,81.026666 26.580981,82 25.947176,82 c -0.55547,0 -1.263271,-0.660155 -1.57289,-1.467011 z M 70.66526,53.267397 c -0.88941,-1.439096 0.96073,-3.486934 2.814993,-3.11579 1.589078,0.318065 1.565527,0.506401 -0.27055,2.163536 -1.106132,0.998328 -2.251131,1.426843 -2.544443,0.952254 z M 23,31.622445 c 0,-0.757656 0.759254,-1.995156 1.687231,-2.75 1.485251,-1.208148 1.604962,-1.15316 1,0.459342 C 25.309254,30.339271 25,31.576771 25,32.081787 25,32.586804 24.55,33 24,33 23.45,33 23,32.3801 23,31.622445 z M 38,23 c 1.958372,-1.265597 3.282182,-1.265597 2.5,0 -0.339919,0.55 -1.378976,0.993109 -2.309017,0.984687 C 36.733708,23.971491 36.707313,23.835399 38,23 z"
     style="fill:#313435" />
</svg>
