<?xml version="1.0" encoding="UTF-8" standalone="no"?>
<svg version="1.1" xmlns="http://www.w3.org/2000/svg" xmlns:xlink="http://www.w3.org/1999/xlink" x="0" y="0" width="50" height="50" viewBox="-10 -10 90 90">
    <path style="fill:#222121;fill-rule:evenodd"
        d="M 31.9625,8.95625 C 30.4102,5.7745756 26.204542,0.87612234 19.930961,3.3518765 13.78615,4.56059 13.723979,11.592807 17.28125,17.84375 3.4548191,17.060371 0.37931003,22.361338 0.86784063,30.446305 1.2728576,34.277569 5.0648626,36.597861 8.45,37.3625 6.510376,38.770307 3.176305,43.425917 5.2875578,48.290517 8.66968,52.58294 12.670074,52.08112 16.60625,50.8625 10.589275,61.962002 16.102658,66.399955 20.657433,68.513409 28.597726,70.595777 35.159217,63.801899 36.0125,60.875 c 3.014487,3.264538 7.54906,5.581993 11.25,3.20625 3.862544,-2.81745 4.199256,-7.443842 3.43125,-11.41875 3.536388,2.234113 8.594775,2.478962 11.75625,0.84375 7.024964,-3.840167 6.886507,-16.895921 -2.025,-20.925 4.676456,-2.660087 7.921525,-7.044642 5.68125,-12.09375 -3.294182,-4.700032 -8.398697,-4.405912 -13.05,-3.43125 1.944369,-3.767747 1.463796,-8.9403376 -0.225,-11.925 -7.335381,-7.5989976 -18.333045,-5.36193792 -20.86875,3.825 z"
        />
    <path style="fill:#44aa00;fill-rule:evenodd"
        d="m 47.832585,5.289178 c 7.028534,4.5697724 -2.71386,17.019504 -8.00739,21.784064 C 38.943359,26.387207 37.963379,25.896973 36.983887,25.407226 29.067709,6.1825964 41.448249,2.3252456 47.832585,5.289178 z M 22.055904,6.3118047 c 5.928858,-1.7212789 8.099581,13.5808023 8.95142,18.6056753 l -1.470215,0.489746 C 15.245982,16.434745 17.195061,7.6724341 22.055904,6.3118047 z m 3.170658,22.2311643 c -0.783691,0.979492 -1.273925,1.959472 -1.567871,2.938965 C 16.267326,33.05563 6.4010323,35.773063 4.7562649,28.950229 4.2862827,18.512205 15.610137,21.48635 25.226562,28.542969 z m 37.231446,-5.878906 c 1.697391,9.079895 -13.901837,8.111559 -19.69336,8.817871 -0.113877,-0.636372 -0.350364,-0.920671 -0.337074,-1.334897 4.999321,-4.499257 14.895931,-14.53652 20.030434,-7.482974 z M 31.104981,44.807617 c 3.327433,11.382975 -0.0059,24.320512 -10.91513,19.14531 -6.081894,-4.279508 2.980529,-14.393282 7.87802,-20.223435 0.979492,0.489258 1.959473,0.979492 3.03711,1.078125 z m 7.544433,-1.274414 c 4.716589,4.25957 11.696275,12.434919 6.368653,16.950196 -5.991176,2.157212 -8.411115,-10.473826 -9.308106,-15.675782 1.053621,-0.277498 1.98922,-0.763058 2.939453,-1.274414 z m 4.408692,-6.074707 c 9.599855,-2.314509 22.154981,-1.861896 20.771972,7.748651 -3.75472,11.989976 -14.323178,1.051506 -21.751465,-5.102655 0.511301,-0.830029 0.7267,-1.724978 0.979493,-2.645996 z"
        />
    <path style="fill:#ff0000;fill-rule:evenodd"
        d="m 23.266602,37.164551 c 0.270562,0.903843 0.638994,1.769531 0.97998,2.645996 C 21.816208,42.196527 13.328295,51.838043 9.0778354,46.94374 5.168069,39.959609 15.162194,38.657124 23.266602,37.164551 z"
        />
    <path style="fill:#ffff00;fill-rule:evenodd"
        d="m 33.456543,28.836914 c 3.678794,0.347571 6.422676,2.959767 6.466797,6.368164 -0.414802,3.663373 -2.337557,6.417674 -6.466797,6.564453 -4.363741,-0.328198 -6.512264,-3.038489 -6.564453,-6.564453 0.656454,-3.717246 3.059501,-6.319298 6.564453,-6.368164 z"
        />
</svg>