<?xml version="1.0" encoding="UTF-8" standalone="no"?>
<svg version="1.1" xmlns="http://www.w3.org/2000/svg" xmlns:xlink="http://www.w3.org/1999/xlink" width="340" height="340" viewBox="0 0 422 422">
    <path
        style="fill:#0b2b5c;fill-opacity:1;fill-rule:nonzero;stroke:none"
        d="M 41.35185,397.74315 C 35.33804,394.95129 30.4376,390.32956 27.35432,384.54177 L 25,380.12235 25,214.3942 25,48.666047 27.14158,44.314768 c 2.859,-5.808963 7.99736,-10.786035 14.07949,-13.637551 l 4.99214,-2.34049 160.86682,-0.270286 c 117.9177,-0.198124 162.1647,-0.0013 165.7281,0.737279 5.6359,1.168085 12.9999,5.666339 16.2482,9.925082 1.2432,1.629926 3.1672,4.930341 4.2756,7.334257 l 2.0153,4.370755 0.2464,159.540966 c 0.155,100.33969 -0.073,161.6138 -0.614,165.12702 -1.5657,10.16509 -6.9908,17.83662 -15.796,22.33689 l -4.1658,2.12909 -164.4023,0.21611 L 46.21321,400 l -4.86136,-2.25685 0,0 z m 91.03998,-140.03866 0,-90.15612 -28.2842,0 -28.28433,0 0,90.15612 0,90.15611 28.28433,0 28.2842,0 0,-90.15611 z m 75.742,89.27223 15.3568,0 -0.2504,-51.04427 c -0.2328,-47.46574 -0.1364,-51.41342 1.3744,-56.30982 5.0849,-16.47931 13.7506,-24.22219 28.0343,-25.04906 9.4559,-0.5474 14.8425,1.33855 20.7791,7.27509 5.1321,5.13215 7.8543,11.23732 9.2198,20.67765 0.4692,3.24357 0.861,28.32421 0.8706,55.73476 l 0.017,49.83737 27.8394,-0.41066 c 15.3117,-0.22586 28.1391,-0.70998 28.5053,-1.07582 1.1186,-1.11759 1.3544,-109.36562 0.262,-120.28534 -4.3023,-43.00507 -24.4864,-62.29433 -65.4455,-62.54418 -20.2594,-0.12359 -35.1123,5.91677 -48.8346,19.86002 l -5.0823,5.16416 0,-10.50715 0,-10.50716 -26.7375,-0.45003 c -14.7056,-0.24752 -27.0358,-0.27893 -27.4004,-0.0698 -0.3646,0.20913 -0.6629,40.98912 -0.6629,90.62219 l 0,90.24194 13.3988,-0.57994 c 7.3693,-0.31895 20.3093,-0.57992 28.7556,-0.57992 l 0,0 z m -89.9584,-202.0052 c 3.3931,-1.52271 6.9075,-4.0607 9.675,-6.98688 7.5265,-7.95816 10.3146,-15.74011 9.6643,-26.97401 -0.3389,-5.85344 -0.9607,-8.16634 -3.6691,-13.64632 -14.5214,-29.382095 -56.31609,-22.290246 -61.54528,10.44319 -4.33678,27.14716 21.51989,48.09399 45.87508,37.16402 z"
    />
</svg>
