<?xml version="1.0" encoding="UTF-8" standalone="no"?>
<svg version="1.1" id="Layer_1" xmlns="http://www.w3.org/2000/svg" width="165" height="130" viewBox="-15 -30 195 195" xmlns:xlink="http://www.w3.org/1999/xlink" xml:space="preserve">
  <path d="M 5.0302931,129.00514 C 3.8490731,128.5294 2.5798839,127.65032 2.2098727,127.05163 1.8398614,126.45294 1.5812425,98.476828 1.635164,64.8825 1.7240055,9.5321474 1.8880201,3.6470208 3.3834508,2.1509512 4.8682849,0.66548285 10.322869,0.47157455 57.801033,0.2164278 l 52.767337,-0.28357065 2.94083,3.28357065 c 12.18933,13.6099262 51.66877,60.7358632 51.66877,61.6761342 0,0.779749 -47.66791,58.169718 -52.14269,62.777398 l -2.1427,2.20634 -51.857308,-0.003 C 30.513754,129.8713 6.2115131,129.48098 5.0302931,129.00523 z"
     style="fill:#f19526" />
  <path d="m 14.260251,129.21177 c -7.9594094,-0.23133 -10.1745032,-0.62624 -11.2181973,-2 C 2.0180708,125.86394 1.7723553,116.7829 1.886356,84.499998 1.9157727,42.493013 9.077351,57.082503 43.308726,59.636605 l 9.602921,0.675019 -0.743525,-2.405813 c -0.40894,-1.323197 -1.416788,-3.727846 -2.239663,-5.343665 -3.479557,-6.832545 1.117682,-22.643119 8.042539,-27.65946 11.62132,-8.418441 23.905332,-1.892773 27.78718,14.761457 1.47334,6.321046 1.378246,9.538716 -0.384246,13.001542 -0.793428,1.558872 -1.773103,3.904078 -2.177058,5.211568 l -0.734462,2.377254 8.857777,-0.709065 c 4.871777,-0.389986 10.882781,-1.159594 13.357781,-1.71024 2.475,-0.550646 7.65,-1.372887 11.5,-1.827202 22.6887,-6.462523 35.78527,-5.448724 49.67351,8.972337 l -3.05593,3.055932 c -3.25251,3.25251 -46.56922,54.913961 -49.23197,58.716251 l -1.57745,2.25253 -43.904082,0.24747 c -24.147245,0.13612 -48.367054,0.11777 -53.821797,-0.0408 z"
     style="fill:#ca4e24" />
  <path d="m 36.427966,100.28375 c -3.439297,-0.521016 -3.611527,-3.312062 -0.766932,-12.428417 2.876449,-9.21844 5.160898,-11.541235 14.441848,-14.684266 9.434951,-3.195184 10.876094,-4.864235 8.151164,-9.440222 -1.058155,-1.776966 -3.473182,-6.085582 -5.366726,-9.574702 -3.438781,-6.336439 -3.441322,-6.351053 -2.173773,-12.5 1.660053,-8.053001 4.191065,-12.978232 8.205188,-15.966913 6.78939,-5.054982 14.215208,-4.247563 20.019151,2.176708 2.725377,3.016666 3.851313,5.536416 5.217128,11.675495 1.728568,7.769581 1.725161,7.863034 -0.451729,12.393588 -1.206387,2.510738 -3.567323,6.725552 -5.246526,9.366256 -4.145928,6.51986 -3.115951,8.877374 4.896031,11.20652 8.227033,2.391663 10.828116,3.951873 13.325812,7.99323 2.390722,3.86827 4.968648,12.457794 4.987498,16.618129 0.0102,2.25276 -0.51272,2.705867 -3.738134,3.238994 -4.065126,0.67193 -56.996052,0.60789 -61.5,-0.0744 z"
     style="fill:#362e29" />
</svg>

