<?xml version="1.0" encoding="UTF-8" standalone="no"?>
<svg version="1.1" xmlns="http://www.w3.org/2000/svg" xmlns:xlink="http://www.w3.org/1999/xlink" width="340px" height="340px"  viewBox="-20 -30 480 480">
    <path
        style="fill:#704891;fill-opacity:1;stroke:#ffffff;stroke-width:2px;stroke-linecap:butt;stroke-linejoin:miter;stroke-opacity:1"
        d="m 210.40324,27.289147 c 0.40608,-12.291789 12.99409,-11.102273 12.99409,-11.102273 0,0 91.12105,-1.675316 143.74705,63.837973 51.39092,63.975733 43.04291,131.641043 43.04291,131.641043 0,0 -2.44133,9.67501 -11.36982,9.51622 -10.1576,-0.18064 -12.18196,-9.91273 -12.18196,-9.91273 0,0 0.0115,-75.2521 -42.63686,-121.728316 C 298.58527,40.051797 219.74274,39.977449 219.74274,39.977449 c 0,0 -9.3395,-1.586056 -9.3395,-12.688302 z"
    />
    <path
        style="fill:#704891;fill-opacity:1;stroke:#ffffff;stroke-width:2px;stroke-linecap:butt;stroke-linejoin:miter;stroke-opacity:1"
        d="m 227.00073,73.251007 c 0.32704,-9.17811 9.65329,-10.66899 9.65329,-10.66899 0,0 54.30376,-6.802073 96.68873,42.115883 41.39021,47.76984 28.98183,89.17496 28.98183,89.17496 0,0 -3.18398,9.57273 -10.37542,9.48469 -11.02341,-0.13494 -11.43563,-10.17729 -11.43563,-10.17729 0,0 3.05467,-44.69101 -25.81234,-73.84306 -36.58407,-36.94529 -80.17845,-34.62946 -80.17845,-34.62946 0,0 -7.52201,-3.166827 -7.52201,-11.456733 z"
    />
    <path
        style="fill:#704891;fill-opacity:1;stroke:#ffffff;stroke-width:2px;stroke-linecap:butt;stroke-linejoin:miter;stroke-opacity:1"
        d="m 240.31236,120.64062 c 0.21867,-6.26718 7.06336,-10.65554 7.06336,-10.65554 0,0 32.43662,-5.17417 53.88598,19.83694 21.50365,25.07442 15.51983,50.18648 15.51983,50.18648 0,0 -4.36211,8.11413 -12.01291,7.66603 -8.57366,-0.50214 -10.69141,-8.33724 -10.69141,-8.33724 0,0 0.92073,-19.55218 -10.35519,-32.97656 -13.47241,-16.03937 -36.55313,-13.73364 -36.55313,-13.73364 0,0 -7.05957,-4.73975 -6.85653,-11.98647 z"
    />
    <path
        style="fill:#704891;fill-opacity:1;stroke:#ffffff;stroke-width:2px;stroke-linecap:butt;stroke-linejoin:miter;stroke-opacity:1"
        d="m 92.035268,22.729289 c 16.039562,2.973815 25.582102,9.91273 52.179372,45.400297 26.59726,35.487564 29.64275,49.563654 29.23667,56.304304 -0.40606,6.74065 -4.66972,14.07607 -17.05471,23.39403 -12.385,9.31797 -21.11539,15.46386 -21.7245,23.39403 -0.60909,7.93019 4.06065,32.91028 15.22745,48.77063 11.16679,15.86038 22.73964,28.94517 34.9216,39.25442 12.18194,10.30923 48.72781,38.46137 71.0614,38.46137 22.33357,0 28.01849,-38.06487 52.58543,-37.66835 24.56692,0.3965 41.41864,16.05862 59.8946,29.34166 18.47595,13.28306 45.88536,30.33295 44.66717,48.17586 -1.21821,17.84292 -13.40015,29.73819 -24.56694,43.21951 -11.1668,13.48131 -27.40942,25.7731 -46.90053,27.35913 -19.49113,1.58603 -71.46746,-26.76439 -87.71007,-35.68583 C 237.60961,363.5289 178.63575,326.59703 144.8133,290.1392 100.59507,242.47557 21.462555,145.30204 21.346805,80.419227 21.327291,69.531475 60.041186,23.917956 92.035268,22.729289 z"
    />
</svg>
