<?xml version="1.0" encoding="UTF-8" standalone="no"?>
<svg xmlns:svg="http://www.w3.org/2000/svg" xmlns="http://www.w3.org/2000/svg" version="1.0" width="250" height="250">
    <path
       style="fill:#000000;fill-opacity:1;fill-rule:nonzero;stroke:#808080;stroke-width:0.47763786000000003;stroke-linecap:round;stroke-linejoin:round;stroke-miterlimit:4;stroke-opacity:1;stroke-dasharray:none"
       d="m 14.91967,241.26688 c 0,-1.22548 1.384175,-7.07149 8.174053,-34.52285 l 5.752194,-23.25602 -1.877589,-2.77524 C 13.266516,160.46025 6.8784703,142.60287 5.8829739,121.76998 4.6538982,96.048943 12.457385,71.425188 28.800885,49.452934 46.89741,25.123909 73.606232,8.4682167 102.3274,3.6016046 c 6.26992,-1.062397 20.51764,-1.4629132 27.18955,-0.7643232 32.7901,3.4333205 64.72067,23.2163406 83.51635,51.7436916 14.21431,21.573919 20.29928,49.514157 16.515,75.831577 -6.28444,43.70456 -34.82951,78.49013 -74.91955,91.29839 -12.54383,4.00759 -22.14881,5.30948 -39.40513,5.34109 -14.83695,0.0272 -14.92386,0.0146 -31.196949,-4.532 -7.967702,-2.22611 -8.666734,-2.34437 -10.985671,-1.8585 -3.480633,0.72928 -6.572483,1.86407 -33.473239,12.28557 -13.107683,5.07799 -24.015738,9.23271 -24.240121,9.23271 -0.224384,0 -0.40797,-0.41081 -0.40797,-0.91293 z m 29.417748,-11.78139 c 12.585979,-4.8875 24.577985,-9.54135 26.648908,-10.34189 l 3.765305,-1.45552 6.026271,1.95415 c 16.987272,5.5085 27.522628,7.14679 42.565568,6.61911 15.79142,-0.55394 28.37797,-3.73881 42.74858,-10.817 33.60851,-16.55374 57.80606,-50.89659 62.60467,-88.85289 0.93581,-7.40217 0.90833,-20.09446 -0.0587,-27.108983 C 225.30993,75.341584 214.05106,53.551492 195.87767,36.079074 178.45348,19.326951 159.86545,9.6185669 137.19496,5.4295605 130.69118,4.2278056 111.78749,4.2259531 104.71559,5.4263777 66.371924,11.935046 33.114691,37.036617 16.849889,71.744799 9.2727467,87.913997 5.7311309,107.1626 7.2418205,123.96444 c 1.6674822,18.54568 7.3242725,34.44058 18.7441975,52.66894 l 4.296728,6.85839 -3.844535,15.61193 c -6.815097,27.67482 -8.652714,35.83285 -8.652714,38.41336 0,1.4041 0.04744,1.43379 1.834162,1.14808 1.008788,-0.16131 12.13178,-4.29215 24.717759,-9.17965 l 0,0 z"
    />
    <path
       style="fill:#3fc150;fill-opacity:1;fill-rule:nonzero;stroke:#000000"
       d="m 41.87162,207.04015 c 3.37528,-12.12521 6.50376,-25.6648 6.50376,-28.14726 0,-3.31862 -0.32821,-4.01139 -5.73835,-12.11243 -10.82305,-16.20622 -15.84436,-30.70019 -16.54737,-47.76379 -0.361,-8.76232 0.29177,-14.95267 2.46796,-23.404261 1.97957,-7.68802 3.37236,-11.43092 6.75393,-18.15024 5.07921,-10.09256 11.71287,-19.030465 20.0362,-26.995894 8.08175,-7.73423 15.68276,-13.016853 25.74582,-17.893075 34.31291,-16.626877 71.07118,-10.579913 99.12235,16.306243 14.88423,14.266055 23.98253,30.455876 27.76601,49.407767 0.90925,4.55455 1.08907,7.00732 1.09952,14.99781 0.013,9.94139 -0.32956,12.97554 -2.40741,21.32297 -5.27648,21.19746 -18.3831,41.18974 -35.39286,53.98677 -15.27564,11.4924 -31.83433,17.38192 -50.44572,17.94233 -14.44671,0.435 -24.45272,-1.60946 -41.36971,-8.45278 l -5.92657,-2.39744 -12.94013,5.07081 c -7.11707,2.78895 -14.31075,5.58945 -15.98596,6.22334 l -3.04584,1.15252 0.30437,-1.09339 0,0 z m 119.76563,-36.62417 c 6.5514,-2.09234 10.82712,-5.60324 13.42559,-11.02407 1.33128,-2.77726 1.51817,-3.70092 1.70352,-8.41941 0.28731,-7.31414 -0.15725,-8.20175 -5.34184,-10.66554 -4.01365,-1.90734 -13.92927,-5.71916 -20.59581,-7.91756 -4.67597,-1.54198 -6.73461,-1.37802 -9.75364,0.77684 -6.31813,4.50962 -6.72713,4.7173 -9.28047,4.71246 -4.69025,-0.009 -10.6757,-3.72968 -17.77829,-11.05169 -5.80813,-5.98754 -15.01132,-17.66756 -15.01132,-19.05128 0,-0.21278 1.63744,-2.2843 3.63874,-4.60336 4.57523,-5.301681 5.13621,-6.564181 4.84366,-10.901031 -0.26927,-3.9917 -4.4763,-16.48329 -8.79081,-26.101809 -1.41211,-3.148083 -1.44043,-3.158823 -9.49018,-3.599214 -4.75394,-0.260082 -5.45276,-0.190018 -7.25005,0.726889 -5.41326,2.761638 -11.72954,9.876484 -13.63517,15.359064 -0.92871,2.67194 -1.07516,4.03661 -1.05084,9.79157 0.0242,5.71525 0.2145,7.36781 1.30983,11.372661 4.07151,14.88655 13.354,30.12256 26.50193,43.49948 13.69818,13.93676 28.54307,23.10347 44.19322,27.28928 3.96485,1.06045 5.10399,1.15666 11.7922,0.9959 5.86715,-0.14102 8.06043,-0.38778 10.56973,-1.18918 l 0,0 z"
    />
</svg>
